<svg width="32" height="32" viewBox="0 0 32 32" fill="none" xmlns="http://www.w3.org/2000/svg">
<g clip-path="url(#clip0_5_3)">
<path d="M30.4 0H1.6C0.716344 0 0 0.716344 0 1.6V30.4C0 31.2837 0.716344 32 1.6 32H30.4C31.2837 32 32 31.2837 32 30.4V1.6C32 0.716344 31.2837 0 30.4 0Z" fill="#3ECC5F"/>
<path d="M3.06881 11.9875C3.5113 12.205 3.9838 12.3644 4.48631 12.4656C4.99255 12.5631 5.48569 12.6119 5.96569 12.6119C6.39317 12.6119 6.76255 12.5781 7.0738 12.5106C7.38505 12.4394 7.64193 12.3437 7.84442 12.2237C8.04693 12.1037 8.19693 11.9612 8.29442 11.7962C8.39193 11.6312 8.44068 11.4531 8.44068 11.2619C8.44068 11.0031 8.35255 10.7725 8.17631 10.57C8.00005 10.3637 7.73193 10.21 7.37193 10.1087C7.01569 10.0037 6.5638 9.96248 6.01631 9.98498C5.47255 10.0075 4.8313 10.1144 4.09255 10.3056L4.09818 8.98936L7.38317 6.85186H2.7313V5.28812H9.76818V6.81812L6.87693 8.65186C7.40569 8.65186 7.87818 8.71936 8.29442 8.85436C8.71068 8.98936 9.0613 9.175 9.34631 9.41124C9.6313 9.64749 9.84881 9.92687 9.99881 10.2494C10.1488 10.5719 10.2238 10.9187 10.2238 11.29C10.2238 11.7287 10.1263 12.1281 9.9313 12.4881C9.74005 12.8444 9.46068 13.15 9.09317 13.405C8.72569 13.6562 8.27569 13.8512 7.74317 13.99C7.21442 14.1287 6.61442 14.1981 5.94317 14.1981C5.23068 14.1981 4.57255 14.1231 3.96881 13.9731C3.36505 13.8194 2.7913 13.6075 2.24756 13.3375L3.06881 11.9875Z" fill="#FFFF50"/>
<mask id="mask0_5_3" style="mask-type:luminance" maskUnits="userSpaceOnUse" x="1" y="5" width="10" height="10">
<path d="M10.4 5.12H1.92004V14.4H10.4V5.12Z" fill="white"/>
<path d="M3.06881 11.9875C3.5113 12.205 3.9838 12.3644 4.48631 12.4656C4.99255 12.5631 5.48569 12.6119 5.96569 12.6119C6.39317 12.6119 6.76255 12.5781 7.0738 12.5106C7.38505 12.4394 7.64193 12.3437 7.84442 12.2237C8.04693 12.1037 8.19693 11.9612 8.29442 11.7962C8.39193 11.6312 8.44068 11.4531 8.44068 11.2619C8.44068 11.0031 8.35255 10.7725 8.17631 10.57C8.00005 10.3637 7.73193 10.21 7.37193 10.1087C7.01569 10.0037 6.5638 9.96248 6.01631 9.98498C5.47255 10.0075 4.8313 10.1144 4.09255 10.3056L4.09818 8.98936L7.38317 6.85186H2.7313V5.28812H9.76818V6.81812L6.87693 8.65186C7.40569 8.65186 7.87818 8.71936 8.29442 8.85436C8.71068 8.98936 9.0613 9.175 9.34631 9.41124C9.6313 9.64749 9.84881 9.92687 9.99881 10.2494C10.1488 10.5719 10.2238 10.9187 10.2238 11.29C10.2238 11.7287 10.1263 12.1281 9.9313 12.4881C9.74005 12.8444 9.46068 13.15 9.09317 13.405C8.72569 13.6562 8.27569 13.8512 7.74317 13.99C7.21442 14.1287 6.61442 14.1981 5.94317 14.1981C5.23068 14.1981 4.57255 14.1231 3.96881 13.9731C3.36505 13.8194 2.7913 13.6075 2.24756 13.3375L3.06881 11.9875Z" fill="black"/>
</mask>
<g mask="url(#mask0_5_3)">
<path d="M3.06881 11.9875L3.13938 11.8439L3.00812 11.7794L2.93212 11.9043L3.06881 11.9875ZM4.48631 12.4656L4.4547 12.6225L4.45604 12.6227L4.48631 12.4656ZM7.0738 12.5106L7.10772 12.667L7.10951 12.6666L7.0738 12.5106ZM8.17631 10.57L8.05466 10.6739L8.05562 10.675L8.17631 10.57ZM7.37193 10.1087L7.3267 10.2622L7.32862 10.2628L7.37193 10.1087ZM4.09255 10.3056L3.93255 10.3049L3.93167 10.5125L4.13265 10.4605L4.09255 10.3056ZM4.09818 8.98936L4.01092 8.85525L3.93855 8.90234L3.93818 8.98867L4.09818 8.98936ZM7.38318 6.85186L7.47044 6.98597L7.92244 6.69186H7.38318V6.85186ZM2.7313 6.85186H2.5713V7.01186H2.7313V6.85186ZM2.7313 5.28811V5.12811H2.5713V5.28811H2.7313ZM9.76818 5.28811H9.92818V5.12811H9.76818V5.28811ZM9.76818 6.81811L9.85388 6.95323L9.92818 6.9061V6.81811H9.76818ZM6.87694 8.65186L6.79124 8.51674L6.32593 8.81186H6.87694V8.65186ZM9.9313 12.4881L9.79062 12.4119L9.79033 12.4124L9.9313 12.4881ZM9.09318 13.405L9.18348 13.5371L9.18439 13.5364L9.09318 13.405ZM7.74318 13.99L7.70284 13.8352L7.70257 13.8352L7.74318 13.99ZM3.96881 13.9731L3.92932 14.1282L3.93023 14.1284L3.96881 13.9731ZM2.24756 13.3375L2.11086 13.2543L2.02026 13.4033L2.17639 13.4808L2.24756 13.3375ZM2.99823 12.1311C3.45358 12.3549 3.93922 12.5186 4.4547 12.6225L4.51791 12.3088C4.02838 12.2101 3.56903 12.0551 3.13938 11.8439L2.99823 12.1311ZM4.45604 12.6227C4.97154 12.722 5.47481 12.7719 5.96569 12.7719V12.4519C5.49655 12.4519 5.01358 12.4042 4.51657 12.3085L4.45604 12.6227ZM5.96569 12.7719C6.40097 12.7719 6.78228 12.7376 7.10772 12.667L7.0399 12.3542C6.74282 12.4187 6.38538 12.4519 5.96569 12.4519V12.7719ZM7.10951 12.6666C7.43156 12.5928 7.70519 12.4922 7.92599 12.3614L7.76286 12.0861C7.57866 12.1952 7.33855 12.2859 7.0381 12.3546L7.10951 12.6666ZM7.92599 12.3614C8.14642 12.2308 8.3182 12.0705 8.43218 11.8776L8.15668 11.7148C8.07567 11.8519 7.94743 11.9767 7.76286 12.0861L7.92599 12.3614ZM8.43218 11.8776C8.54422 11.688 8.60068 11.4818 8.60068 11.2619H8.28068C8.28068 11.4244 8.23964 11.5744 8.15668 11.7148L8.43218 11.8776ZM8.60068 11.2619C8.60068 10.9629 8.49756 10.6954 8.297 10.4649L8.05562 10.675C8.20756 10.8496 8.28068 11.0433 8.28068 11.2619H8.60068ZM8.29794 10.466C8.09468 10.2282 7.79455 10.0614 7.41526 9.9547L7.32862 10.2628C7.6693 10.3586 7.90543 10.4993 8.05466 10.6739L8.29794 10.466ZM7.41716 9.95526C7.03817 9.84355 6.56722 9.80221 6.00974 9.82512L6.02287 10.1448C6.56039 10.1228 6.99319 10.1639 7.3267 10.2622L7.41716 9.95526ZM6.00974 9.82512C5.45119 9.84824 4.79815 9.95766 4.05246 10.1507L4.13265 10.4605C4.86446 10.2711 5.49393 10.1667 6.02287 10.1448L6.00974 9.82512ZM4.25255 10.3063L4.25818 8.99005L3.93818 8.98867L3.93255 10.3049L4.25255 10.3063ZM4.18545 9.12347L7.47044 6.98597L7.29591 6.71774L4.01092 8.85525L4.18545 9.12347ZM7.38318 6.69186H2.7313V7.01186H7.38318V6.69186ZM2.8913 6.85186V5.28811H2.5713V6.85186H2.8913ZM2.7313 5.44811H9.76818V5.12811H2.7313V5.44811ZM9.60818 5.28811V6.81811H9.92818V5.28811H9.60818ZM9.68249 6.68299L6.79124 8.51674L6.96263 8.78698L9.85388 6.95323L9.68249 6.68299ZM6.87694 8.81186C7.3923 8.81186 7.84769 8.87768 8.24506 9.00656L8.34378 8.70216C7.90868 8.56104 7.41906 8.49186 6.87694 8.49186V8.81186ZM8.24506 9.00656C8.6455 9.13642 8.97735 9.31322 9.2442 9.53442L9.44842 9.28805C9.14527 9.03675 8.77586 8.84229 8.34378 8.70216L8.24506 9.00656ZM9.2442 9.53442C9.51169 9.75614 9.71415 10.0168 9.85374 10.3168L10.1439 10.1819C9.98346 9.83698 9.75092 9.53882 9.44842 9.28805L9.2442 9.53442ZM9.85374 10.3168C9.99346 10.6173 10.0638 10.941 10.0638 11.29H10.3838C10.3838 10.8965 10.3042 10.5264 10.1439 10.1819L9.85374 10.3168ZM10.0638 11.29C10.0638 11.7041 9.97204 12.077 9.79062 12.4119L10.072 12.5643C10.2806 12.1792 10.3838 11.7534 10.3838 11.29H10.0638ZM9.79033 12.4124C9.61226 12.7441 9.35095 13.0314 9.00196 13.2735L9.18439 13.5364C9.57041 13.2686 9.86785 12.9446 10.0723 12.5638L9.79033 12.4124ZM9.00287 13.2729C8.6537 13.5116 8.22156 13.7 7.70284 13.8352L7.78353 14.1448C8.3298 14.0025 8.79766 13.8008 9.18348 13.5371L9.00287 13.2729ZM7.70257 13.8352C7.18969 13.9698 6.6037 14.0381 5.94318 14.0381V14.3581C6.62516 14.3581 7.23918 14.2877 7.78378 14.1448L7.70257 13.8352ZM5.94318 14.0381C5.24185 14.0381 4.59684 13.9643 4.00738 13.8178L3.93023 14.1284C4.54826 14.2819 5.21951 14.3581 5.94318 14.3581V14.0381ZM4.0083 13.8181C3.41519 13.667 2.85209 13.459 2.31871 13.1942L2.17639 13.4808C2.73052 13.7559 3.31492 13.9717 3.92932 14.1282L4.0083 13.8181ZM2.38425 13.4206L3.2055 12.0706L2.93212 11.9043L2.11086 13.2543L2.38425 13.4206Z" fill="black"/>
</g>
<path d="M2.21875 16.4545H4.45702C5.11067 16.4545 5.67838 16.5248 6.16016 16.6654C6.64192 16.8061 7.04037 17.0078 7.35547 17.2709C7.67318 17.5313 7.90885 17.8491 8.06249 18.224C8.21875 18.5965 8.29688 19.0157 8.29688 19.4819C8.29688 19.9246 8.22005 20.3347 8.0664 20.7123C7.91277 21.0873 7.67838 21.4128 7.36328 21.6889C7.04817 21.9624 6.64974 22.1771 6.16797 22.3334C5.68619 22.487 5.11849 22.5638 4.46485 22.5638L2.21875 22.56V16.4545ZM4.76171 21.4897C5.1315 21.4897 5.45573 21.4429 5.73437 21.3491C6.01302 21.2526 6.24478 21.1173 6.42968 20.9429C6.61718 20.7683 6.75781 20.5574 6.85157 20.3101C6.94531 20.0625 6.99219 19.7865 6.99219 19.4819C6.99219 19.1824 6.94531 18.9128 6.85157 18.6733C6.75781 18.431 6.61718 18.2267 6.42968 18.06C6.24478 17.8907 6.01302 17.7605 5.73437 17.6694C5.45573 17.5782 5.1315 17.5326 4.76171 17.5326H3.45702V21.4897H4.76171ZM11.6211 16.4545H12.9336L15.8867 22.56H14.5859L14.0977 21.5326H10.5312L10.0586 22.56H8.7539L11.6211 16.4545ZM13.6094 20.5131L12.2891 17.7397L11.0039 20.5131H13.6094ZM18.707 21.0483L16.039 16.4545H17.4414L19.3203 19.9272L21.1758 16.4545H22.5781L19.9453 21.0405V22.56H18.707V21.0483ZM23.8008 20.7435C24.0221 20.8686 24.2461 20.9819 24.4726 21.0833C24.7018 21.1824 24.9389 21.267 25.1835 21.3373C25.4283 21.4051 25.685 21.4571 25.9531 21.4936C26.224 21.5301 26.5117 21.5483 26.8165 21.5483C27.1835 21.5483 27.4962 21.5248 27.7539 21.4779C28.0117 21.4285 28.2213 21.3621 28.3829 21.2787C28.5469 21.1928 28.6654 21.0912 28.7382 20.9741C28.8138 20.8568 28.8515 20.7293 28.8515 20.5912C28.8515 20.3699 28.759 20.1953 28.5742 20.0678C28.3893 19.9376 28.1042 19.8725 27.7187 19.8725C27.5494 19.8725 27.371 19.8841 27.1835 19.9077C26.9962 19.9285 26.8059 19.952 26.6133 19.9779C26.4232 20.004 26.2344 20.0288 26.0469 20.0521C25.8619 20.0729 25.6875 20.0833 25.5234 20.0833C25.2499 20.0833 24.987 20.0483 24.7344 19.9779C24.4843 19.9077 24.2618 19.8022 24.0664 19.6616C23.8738 19.5209 23.72 19.3451 23.6054 19.1342C23.4909 18.9233 23.4336 18.6771 23.4336 18.396C23.4336 18.2293 23.4557 18.0638 23.5 17.8998C23.5469 17.7358 23.6198 17.5795 23.7187 17.431C23.8203 17.28 23.9506 17.1408 24.1094 17.0131C24.2682 16.8829 24.4597 16.7709 24.6835 16.6771C24.9101 16.5833 25.1706 16.5105 25.4648 16.4584C25.7618 16.4037 26.0989 16.3765 26.4766 16.3765C26.7501 16.3765 27.0248 16.392 27.3008 16.4233C27.5768 16.452 27.8451 16.4936 28.1054 16.5483C28.3685 16.603 28.6211 16.6694 28.8634 16.7475C29.1054 16.823 29.3307 16.9077 29.539 17.0014L28.9962 18.0014C28.8242 17.9259 28.6394 17.8568 28.4414 17.7944C28.2435 17.7293 28.0365 17.6733 27.8203 17.6264C27.6042 17.5795 27.3802 17.543 27.1485 17.5169C26.9192 17.4883 26.685 17.4741 26.4453 17.4741C26.1042 17.4741 25.8229 17.4989 25.6016 17.5483C25.3829 17.5977 25.2083 17.6616 25.0781 17.7397C24.9478 17.8152 24.8568 17.9011 24.8046 17.9974C24.7552 18.0912 24.7304 18.1849 24.7304 18.2787C24.7304 18.4611 24.8125 18.6107 24.9766 18.728C25.1406 18.8425 25.3906 18.8998 25.7266 18.8998C25.8619 18.8998 26.017 18.8907 26.1914 18.8725C26.3685 18.8517 26.5534 18.8296 26.7461 18.8061C26.9414 18.7827 27.1394 18.7617 27.3398 18.7435C27.543 18.7227 27.7395 18.7123 27.9298 18.7123C28.2891 18.7123 28.6067 18.7526 28.8829 18.8334C29.1614 18.9142 29.3946 19.0301 29.5821 19.1811C29.7696 19.3296 29.9115 19.5105 30.0078 19.724C30.1042 19.935 30.1523 20.172 30.1523 20.435C30.1523 20.7865 30.0702 21.1003 29.9062 21.3765C29.7448 21.6499 29.513 21.8816 29.2109 22.0717C28.9115 22.2592 28.5494 22.4024 28.125 22.5014C27.7005 22.5977 27.2278 22.6459 26.707 22.6459C26.3634 22.6459 26.0274 22.6238 25.6992 22.5795C25.371 22.5379 25.056 22.4779 24.7539 22.3998C24.4544 22.319 24.168 22.224 23.8946 22.1147C23.6237 22.0027 23.3723 21.8803 23.1406 21.7475L23.8008 20.7435Z" fill="#FFFF50"/>
<mask id="mask1_5_3" style="mask-type:luminance" maskUnits="userSpaceOnUse" x="1" y="16" width="30" height="7">
<path d="M30.4 16.16H1.92004V22.88H30.4V16.16Z" fill="white"/>
<path d="M2.21875 16.4546H4.45702C5.11067 16.4546 5.67838 16.5248 6.16016 16.6655C6.64192 16.8061 7.04037 17.0079 7.35547 17.2709C7.67318 17.5314 7.90885 17.8491 8.06249 18.224C8.21875 18.5965 8.29688 19.0157 8.29688 19.4819C8.29688 19.9247 8.22005 20.3347 8.0664 20.7123C7.91277 21.0874 7.67838 21.4128 7.36328 21.689C7.04817 21.9624 6.64974 22.1771 6.16797 22.3335C5.68619 22.4871 5.11849 22.5639 4.46485 22.5639L2.21875 22.56V16.4546ZM4.76171 21.4898C5.1315 21.4898 5.45573 21.4429 5.73437 21.3491C6.01302 21.2527 6.24478 21.1173 6.42968 20.9429C6.61718 20.7683 6.75781 20.5575 6.85157 20.3101C6.94531 20.0626 6.99219 19.7866 6.99219 19.4819C6.99219 19.1824 6.94531 18.9128 6.85157 18.6733C6.75781 18.4311 6.61718 18.2267 6.42968 18.06C6.24478 17.8907 6.01302 17.7605 5.73437 17.6695C5.45573 17.5783 5.1315 17.5327 4.76171 17.5327H3.45702V21.4898H4.76171ZM11.6211 16.4546H12.9336L15.8867 22.56H14.5859L14.0977 21.5327H10.5312L10.0586 22.56H8.7539L11.6211 16.4546ZM13.6094 20.5131L12.2891 17.7397L11.0039 20.5131H13.6094ZM18.707 21.0483L16.039 16.4546H17.4414L19.3203 19.9272L21.1758 16.4546H22.5781L19.9453 21.0405V22.56H18.707V21.0483ZM23.8008 20.7435C24.0221 20.8687 24.2461 20.9819 24.4726 21.0834C24.7018 21.1824 24.9389 21.2671 25.1835 21.3373C25.4283 21.4051 25.685 21.4571 25.9531 21.4936C26.224 21.5301 26.5117 21.5483 26.8165 21.5483C27.1835 21.5483 27.4962 21.5248 27.7539 21.4779C28.0117 21.4285 28.2213 21.3621 28.3829 21.2787C28.5469 21.1928 28.6654 21.0912 28.7382 20.9741C28.8138 20.8568 28.8515 20.7293 28.8515 20.5912C28.8515 20.3699 28.759 20.1954 28.5742 20.0679C28.3893 19.9376 28.1042 19.8725 27.7187 19.8725C27.5494 19.8725 27.371 19.8842 27.1835 19.9077C26.9962 19.9285 26.8059 19.952 26.6133 19.9779C26.4232 20.004 26.2344 20.0288 26.0469 20.0522C25.8619 20.073 25.6875 20.0834 25.5234 20.0834C25.2499 20.0834 24.987 20.0483 24.7344 19.9779C24.4843 19.9077 24.2618 19.8023 24.0664 19.6616C23.8738 19.521 23.72 19.3451 23.6054 19.1343C23.4909 18.9234 23.4336 18.6771 23.4336 18.396C23.4336 18.2293 23.4557 18.0639 23.5 17.8999C23.5469 17.7359 23.6198 17.5795 23.7187 17.4311C23.8203 17.28 23.9506 17.1408 24.1094 17.0131C24.2682 16.8829 24.4597 16.7709 24.6835 16.6771C24.9101 16.5834 25.1706 16.5106 25.4648 16.4584C25.7618 16.4037 26.0989 16.3765 26.4766 16.3765C26.7501 16.3765 27.0248 16.392 27.3008 16.4234C27.5768 16.452 27.8451 16.4936 28.1054 16.5483C28.3685 16.6031 28.6211 16.6695 28.8634 16.7475C29.1054 16.8231 29.3307 16.9077 29.539 17.0015L28.9962 18.0015C28.8242 17.9259 28.6394 17.8568 28.4414 17.7944C28.2435 17.7293 28.0365 17.6733 27.8203 17.6264C27.6042 17.5795 27.3802 17.5431 27.1485 17.517C26.9192 17.4883 26.685 17.4741 26.4453 17.4741C26.1042 17.4741 25.8229 17.4989 25.6016 17.5483C25.3829 17.5978 25.2083 17.6616 25.0781 17.7397C24.9478 17.8152 24.8568 17.9011 24.8046 17.9975C24.7552 18.0912 24.7304 18.185 24.7304 18.2787C24.7304 18.4611 24.8125 18.6107 24.9766 18.728C25.1406 18.8426 25.3906 18.8999 25.7266 18.8999C25.8619 18.8999 26.017 18.8907 26.1914 18.8725C26.3685 18.8517 26.5534 18.8296 26.7461 18.8061C26.9414 18.7827 27.1394 18.7618 27.3398 18.7435C27.543 18.7227 27.7395 18.7123 27.9298 18.7123C28.2891 18.7123 28.6067 18.7527 28.8829 18.8335C29.1614 18.9143 29.3946 19.0301 29.5821 19.1811C29.7696 19.3296 29.9115 19.5106 30.0078 19.724C30.1042 19.9351 30.1523 20.172 30.1523 20.4351C30.1523 20.7866 30.0702 21.1003 29.9062 21.3765C29.7448 21.6499 29.513 21.8816 29.2109 22.0717C28.9115 22.2592 28.5494 22.4024 28.125 22.5015C27.7005 22.5978 27.2278 22.6459 26.707 22.6459C26.3634 22.6459 26.0274 22.6239 25.6992 22.5795C25.371 22.5379 25.056 22.4779 24.7539 22.3999C24.4544 22.3191 24.168 22.224 23.8946 22.1147C23.6237 22.0027 23.3723 21.8803 23.1406 21.7475L23.8008 20.7435Z" fill="black"/>
</mask>
<g mask="url(#mask1_5_3)">
<path d="M2.21884 16.4546V16.2946H2.05884V16.4546H2.21884ZM7.35556 17.2709L7.25301 17.3938L7.25413 17.3947L7.35556 17.2709ZM8.06258 18.224L7.91453 18.2848L7.91505 18.2859L8.06258 18.224ZM8.06649 20.7123L8.21455 20.773L8.21469 20.7727L8.06649 20.7123ZM7.36337 21.689L7.46823 21.8098L7.46881 21.8093L7.36337 21.689ZM6.16805 22.3335L6.21666 22.4859L6.21741 22.4856L6.16805 22.3335ZM4.46493 22.5639L4.46465 22.7239H4.46493V22.5639ZM2.21884 22.56H2.05884V22.7197L2.21855 22.72L2.21884 22.56ZM5.73445 21.3491L5.78548 21.5007L5.78676 21.5003L5.73445 21.3491ZM6.42977 20.9429L6.32077 20.8256L6.31996 20.8264L6.42977 20.9429ZM6.85165 18.6733L6.70244 18.7311L6.70265 18.7315L6.85165 18.6733ZM6.42977 18.06L6.32173 18.1781L6.3226 18.1789L6.32348 18.1795L6.42977 18.06ZM3.45711 17.5327V17.3727H3.29711V17.5327H3.45711ZM3.45711 21.4898H3.29711V21.6498H3.45711V21.4898ZM2.21884 16.6146H4.45711V16.2946H2.21884V16.6146ZM4.45711 16.6146C5.09991 16.6146 5.65183 16.6837 6.11541 16.8191L6.20508 16.5119C5.70511 16.3659 5.12162 16.2946 4.45711 16.2946V16.6146ZM6.11541 16.8191C6.58063 16.9549 6.95813 17.1477 7.25301 17.3938L7.45809 17.1482C7.12274 16.8682 6.7034 16.6573 6.20508 16.5119L6.11541 16.8191ZM7.25413 17.3947C7.55159 17.6386 7.77109 17.9347 7.91453 18.2848L8.21065 18.1634C8.04679 17.7635 7.79493 17.4242 7.45698 17.1472L7.25413 17.3947ZM7.91505 18.2859C8.06191 18.636 8.13697 19.0338 8.13697 19.4819H8.45697C8.45697 18.9978 8.37577 18.557 8.21012 18.1621L7.91505 18.2859ZM8.13697 19.4819C8.13697 19.9058 8.06349 20.2952 7.91829 20.652L8.21469 20.7727C8.37677 20.3743 8.45697 19.9435 8.45697 19.4819H8.13697ZM7.91844 20.6517C7.7745 21.0031 7.55505 21.3083 7.25794 21.5685L7.46881 21.8093C7.80189 21.5175 8.05119 21.1717 8.21455 20.773L7.91844 20.6517ZM7.2585 21.568C6.96268 21.8248 6.58431 22.0303 6.11869 22.1813L6.21741 22.4856C6.71533 22.3242 7.13385 22.1 7.46823 21.8098L7.2585 21.568ZM6.11945 22.181C5.65721 22.3285 5.10665 22.4039 4.46493 22.4039V22.7239C5.13052 22.7239 5.71535 22.6458 6.21666 22.4859L6.11945 22.181ZM4.46521 22.4039L2.21911 22.4L2.21855 22.72L4.46465 22.7239L4.46521 22.4039ZM2.37884 22.56V16.4546H2.05884V22.56H2.37884ZM4.7618 21.6498C5.14468 21.6498 5.48679 21.6013 5.78548 21.5007L5.68345 21.1975C5.42485 21.2845 5.11852 21.3298 4.7618 21.3298V21.6498ZM5.78676 21.5003C6.08343 21.3978 6.33577 21.2515 6.53959 21.0592L6.31996 20.8264C6.15399 20.9831 5.94279 21.1077 5.68217 21.1979L5.78676 21.5003ZM6.53877 21.06C6.74489 20.8682 6.89909 20.6363 7.00127 20.3667L6.70204 20.2533C6.61669 20.4786 6.48967 20.6683 6.32077 20.8256L6.53877 21.06ZM7.00127 20.3667C7.10284 20.0987 7.15228 19.8031 7.15228 19.4819H6.83228C6.83228 19.7701 6.78796 20.0266 6.70204 20.2533L7.00127 20.3667ZM7.15228 19.4819C7.15228 19.1656 7.10276 18.876 7.00065 18.6151L6.70265 18.7315C6.78804 18.9498 6.83228 19.1992 6.83228 19.4819H7.15228ZM7.00085 18.6155C6.89826 18.3504 6.74327 18.1247 6.53607 17.9405L6.32348 18.1795C6.49127 18.3288 6.61754 18.5117 6.70244 18.7311L7.00085 18.6155ZM6.53781 17.9419C6.33353 17.7549 6.08085 17.6144 5.7842 17.5173L5.68473 17.8215C5.94537 17.9067 6.15623 18.0266 6.32173 18.1781L6.53781 17.9419ZM5.7842 17.5173C5.48594 17.4197 5.14428 17.3727 4.7618 17.3727V17.6927C5.1189 17.6927 5.42569 17.7367 5.68473 17.8215L5.7842 17.5173ZM4.7618 17.3727H3.45711V17.6927H4.7618V17.3727ZM3.29711 17.5327V21.4898H3.61711V17.5327H3.29711ZM3.45711 21.6498H4.7618V21.3298H3.45711V21.6498ZM11.6212 16.4546V16.2946H11.5196L11.4764 16.3866L11.6212 16.4546ZM12.9337 16.4546L13.0777 16.3848L13.034 16.2946H12.9337V16.4546ZM15.8868 22.56V22.72H16.142L16.0308 22.4904L15.8868 22.56ZM14.586 22.56L14.4415 22.6287L14.4849 22.72H14.586V22.56ZM14.0977 21.5327L14.2422 21.464L14.1989 21.3727H14.0977V21.5327ZM10.5313 21.5327V21.3727H10.4288L10.386 21.4658L10.5313 21.5327ZM10.0587 22.56V22.72H10.1612L10.204 22.6269L10.0587 22.56ZM8.75399 22.56L8.60917 22.492L8.50209 22.72H8.75399V22.56ZM13.6095 20.5131V20.6731H13.8628L13.7539 20.4443L13.6095 20.5131ZM12.2891 17.7397L12.4336 17.6709L12.2872 17.3634L12.144 17.6725L12.2891 17.7397ZM11.004 20.5131L10.8588 20.4459L10.7535 20.6731H11.004V20.5131ZM11.6212 16.6146H12.9337V16.2946H11.6212V16.6146ZM12.7896 16.5242L15.7428 22.6296L16.0308 22.4904L13.0777 16.3848L12.7896 16.5242ZM15.8868 22.4H14.586V22.72H15.8868V22.4ZM14.7305 22.4914L14.2422 21.464L13.9532 21.6013L14.4415 22.6287L14.7305 22.4914ZM14.0977 21.3727H10.5313V21.6927H14.0977V21.3727ZM10.386 21.4658L9.91332 22.4931L10.204 22.6269L10.6767 21.5995L10.386 21.4658ZM10.0587 22.4H8.75399V22.72H10.0587V22.4ZM8.89882 22.628L11.766 16.5226L11.4764 16.3866L8.60917 22.492L8.89882 22.628ZM13.7539 20.4443L12.4336 17.6709L12.1447 17.8085L13.465 20.5819L13.7539 20.4443ZM12.144 17.6725L10.8588 20.4459L11.1492 20.5803L12.4343 17.8069L12.144 17.6725ZM11.004 20.6731H13.6095V20.3531H11.004V20.6731ZM18.7071 21.0483H18.8671V21.0051L18.8455 20.968L18.7071 21.0483ZM16.0391 16.4546V16.2946H15.7612L15.9008 16.5349L16.0391 16.4546ZM17.4415 16.4546L17.5822 16.3784L17.5369 16.2946H17.4415V16.4546ZM19.3204 19.9272L19.1796 20.0034L19.3212 20.2651L19.4615 20.0026L19.3204 19.9272ZM21.1759 16.4546V16.2946H21.0799L21.0348 16.3792L21.1759 16.4546ZM22.5782 16.4546L22.717 16.5343L22.8545 16.2946H22.5782V16.4546ZM19.9454 21.0405L19.8066 20.9608L19.7854 20.9978V21.0405H19.9454ZM19.9454 22.56V22.72H20.1054V22.56H19.9454ZM18.7071 22.56H18.5471V22.72H18.7071V22.56ZM18.8455 20.968L16.1775 16.3743L15.9008 16.5349L18.5687 21.1287L18.8455 20.968ZM16.0391 16.6146H17.4415V16.2946H16.0391V16.6146ZM17.3007 16.5307L19.1796 20.0034L19.461 19.8511L17.5822 16.3784L17.3007 16.5307ZM19.4615 20.0026L21.317 16.5299L21.0348 16.3792L19.1793 19.8519L19.4615 20.0026ZM21.1759 16.6146H22.5782V16.2946H21.1759V16.6146ZM22.4394 16.3749L19.8066 20.9608L20.0841 21.1202L22.717 16.5343L22.4394 16.3749ZM19.7854 21.0405V22.56H20.1054V21.0405H19.7854ZM19.9454 22.4H18.7071V22.72H19.9454V22.4ZM18.8671 22.56V21.0483H18.5471V22.56H18.8671ZM23.8009 20.7435L23.8796 20.6043L23.7494 20.5307L23.6671 20.6557L23.8009 20.7435ZM24.4727 21.0834L24.4073 21.2295L24.4094 21.2304L24.4727 21.0834ZM25.1836 21.3373L25.1394 21.4912L25.141 21.4915L25.1836 21.3373ZM25.9532 21.4936L25.9316 21.6522H25.9319L25.9532 21.4936ZM27.754 21.4779L27.7826 21.6354L27.7841 21.6351L27.754 21.4779ZM28.383 21.2787L28.4562 21.421L28.4572 21.4205L28.383 21.2787ZM28.7383 20.9741L28.6039 20.8874L28.6031 20.8885L28.6025 20.8896L28.7383 20.9741ZM28.5743 20.0679L28.4822 20.1986L28.4834 20.1995L28.5743 20.0679ZM27.1836 19.9077L27.2014 20.0667L27.2034 20.0664L27.1836 19.9077ZM26.6134 19.9779L26.5919 19.8194L26.5916 19.8195L26.6134 19.9779ZM26.047 20.0522L26.0649 20.2112L26.0668 20.2109L26.047 20.0522ZM24.7345 19.9779L24.6911 20.132L24.6916 20.1322L24.7345 19.9779ZM24.0665 19.6616L23.9722 19.7909L23.973 19.7914L24.0665 19.6616ZM23.5001 17.8999L23.3462 17.8559L23.3458 17.857L23.3457 17.8583L23.5001 17.8999ZM23.7188 17.4311L23.586 17.3418L23.5857 17.3424L23.7188 17.4311ZM24.1095 17.0131L24.2097 17.1379L24.211 17.1368L24.1095 17.0131ZM24.6836 16.6771L24.6225 16.5293L24.6218 16.5296L24.6836 16.6771ZM25.4649 16.4584L25.4929 16.616L25.4938 16.6159L25.4649 16.4584ZM27.3009 16.4234L27.2828 16.5823L27.2844 16.5824L27.3009 16.4234ZM28.1055 16.5483L28.0727 16.7048L28.073 16.705L28.1055 16.5483ZM28.8634 16.7475L28.8142 16.8999L28.8158 16.9003L28.8634 16.7475ZM29.5391 17.0015L29.6798 17.0778L29.762 16.9263L29.6049 16.8555L29.5391 17.0015ZM28.9962 18.0015L28.9318 18.1479L29.0665 18.2071L29.1367 18.0778L28.9962 18.0015ZM28.4415 17.7944L28.3914 17.9464L28.3934 17.9469L28.4415 17.7944ZM27.1486 17.517L27.1287 17.6759L27.1306 17.676L27.1486 17.517ZM25.6017 17.5483L25.5668 17.3922H25.5663L25.6017 17.5483ZM25.0782 17.7397L25.1585 17.8781L25.1594 17.8775L25.1606 17.877L25.0782 17.7397ZM24.8047 17.9975L24.6641 17.9215L24.6633 17.9229L24.8047 17.9975ZM24.9767 18.728L24.8836 18.8583L24.885 18.8592L24.9767 18.728ZM26.1914 18.8725L26.2081 19.0317L26.2102 19.0314L26.1914 18.8725ZM26.7462 18.8061L26.7271 18.6472H26.7268L26.7462 18.8061ZM27.3399 18.7435L27.3545 18.9029L27.3562 18.9027L27.3399 18.7435ZM28.883 18.8335L28.838 18.9871H28.8383L28.883 18.8335ZM29.5822 19.1811L29.4817 19.3058L29.4828 19.3066L29.5822 19.1811ZM30.0079 19.724L29.862 19.7899L29.8623 19.7906L30.0079 19.724ZM29.9063 21.3765L29.7687 21.2947L29.7686 21.2951L29.9063 21.3765ZM29.211 22.0717L29.2959 22.2074L29.2962 22.2072L29.211 22.0717ZM28.125 22.5015L28.1606 22.6575L28.1614 22.6573L28.125 22.5015ZM25.6993 22.5795L25.7207 22.421L25.7194 22.4208L25.6993 22.5795ZM24.754 22.3999L24.7124 22.5544L24.714 22.5547L24.754 22.3999ZM23.8946 22.1147L23.8335 22.2626L23.8351 22.2632L23.8946 22.1147ZM23.1407 21.7475L23.007 21.6595L22.9135 21.8018L23.0612 21.8864L23.1407 21.7475ZM23.7222 20.8829C23.9478 21.0103 24.1761 21.1258 24.4073 21.2295L24.5382 20.9375C24.3162 20.8379 24.0967 20.7269 23.8796 20.6043L23.7222 20.8829ZM24.4094 21.2304C24.6449 21.332 24.8882 21.4191 25.1394 21.4912L25.2279 21.1835C24.9895 21.1151 24.759 21.0328 24.5362 20.9365L24.4094 21.2304ZM25.141 21.4915C25.3932 21.5613 25.6567 21.6147 25.9316 21.6522L25.9748 21.3351C25.7132 21.2995 25.4638 21.2488 25.2263 21.1832L25.141 21.4915ZM25.9319 21.6522C26.2105 21.6896 26.5055 21.7083 26.8166 21.7083V21.3883C26.5182 21.3883 26.2375 21.3704 25.9745 21.3351L25.9319 21.6522ZM26.8166 21.7083C27.1898 21.7083 27.5124 21.6845 27.7826 21.6354L27.7254 21.3205C27.4799 21.3651 27.1775 21.3883 26.8166 21.3883V21.7083ZM27.7841 21.6351C28.051 21.5839 28.2766 21.5136 28.4562 21.421L28.3095 21.1367C28.1663 21.2106 27.9727 21.2731 27.7238 21.3208L27.7841 21.6351ZM28.4572 21.4205C28.6382 21.3258 28.782 21.2069 28.8742 21.0586L28.6025 20.8896C28.549 20.9755 28.4558 21.06 28.3087 21.137L28.4572 21.4205ZM28.8729 21.0608C28.9649 20.9179 29.0116 20.7603 29.0116 20.5912H28.6916C28.6916 20.6983 28.663 20.7959 28.6039 20.8874L28.8729 21.0608ZM29.0116 20.5912C29.0116 20.3163 28.8926 20.0931 28.6652 19.9362L28.4834 20.1995C28.6258 20.2978 28.6916 20.4234 28.6916 20.5912H29.0116ZM28.6665 19.937C28.4415 19.7786 28.1164 19.7125 27.7188 19.7125V20.0325C28.0921 20.0325 28.3374 20.0967 28.4822 20.1986L28.6665 19.937ZM27.7188 19.7125C27.5422 19.7125 27.3572 19.7248 27.1638 19.749L27.2034 20.0664C27.3852 20.0437 27.5569 20.0325 27.7188 20.0325V19.7125ZM27.166 19.7487C26.9772 19.7696 26.7858 19.7933 26.5919 19.8194L26.6348 20.1365C26.8263 20.1107 27.0151 20.0874 27.2014 20.0667L27.166 19.7487ZM26.5916 19.8195C26.4022 19.8455 26.214 19.8701 26.0271 19.8935L26.0668 20.2109C26.255 20.1874 26.4444 20.1626 26.6351 20.1365L26.5916 19.8195ZM26.029 19.8931C25.8494 19.9135 25.6809 19.9234 25.5234 19.9234V20.2434C25.6943 20.2434 25.8748 20.2327 26.0649 20.2112L26.029 19.8931ZM25.5234 19.9234C25.2639 19.9234 25.0154 19.8901 24.7774 19.8239L24.6916 20.1322C24.9586 20.2064 25.2362 20.2434 25.5234 20.2434V19.9234ZM24.7778 19.824C24.5444 19.7583 24.339 19.6607 24.1599 19.5317L23.973 19.7914C24.1847 19.9439 24.4246 20.057 24.6911 20.132L24.7778 19.824ZM24.1609 19.5323C23.9874 19.4058 23.8495 19.2482 23.7462 19.0579L23.4649 19.2106C23.5908 19.4423 23.7602 19.6362 23.9722 19.7909L24.1609 19.5323ZM23.7462 19.0579C23.6463 18.8741 23.5937 18.6551 23.5937 18.396H23.2737C23.2737 18.6992 23.3356 18.9725 23.4649 19.2106L23.7462 19.0579ZM23.5937 18.396C23.5937 18.2437 23.6138 18.0923 23.6545 17.9416L23.3457 17.8583C23.2977 18.0355 23.2737 18.2149 23.2737 18.396H23.5937ZM23.654 17.9439C23.6961 17.7963 23.7617 17.6552 23.8519 17.5199L23.5857 17.3424C23.478 17.5039 23.3978 17.6752 23.3462 17.8559L23.654 17.9439ZM23.8516 17.5203C23.9431 17.3842 24.0618 17.2565 24.2097 17.1379L24.0092 16.8883C23.8393 17.025 23.6977 17.1759 23.586 17.3418L23.8516 17.5203ZM24.211 17.1368C24.3558 17.0181 24.5332 16.9136 24.7455 16.8248L24.6218 16.5296C24.3862 16.6283 24.1809 16.7477 24.0081 16.8895L24.211 17.1368ZM24.7449 16.825C24.9586 16.7365 25.2076 16.6664 25.4929 16.616L25.437 16.301C25.1337 16.3546 24.8618 16.4304 24.6225 16.5293L24.7449 16.825ZM25.4938 16.6159C25.7791 16.5632 26.1065 16.5365 26.4767 16.5365V16.2165C26.0916 16.2165 25.7444 16.2443 25.4359 16.3011L25.4938 16.6159ZM26.4767 16.5365C26.7439 16.5365 27.0127 16.5517 27.2828 16.5823L27.3188 16.2643C27.0369 16.2323 26.7562 16.2165 26.4767 16.2165V16.5365ZM27.2844 16.5824C27.5551 16.6106 27.8178 16.6514 28.0727 16.7048L28.1385 16.3917C27.8724 16.3359 27.5986 16.2933 27.3174 16.2642L27.2844 16.5824ZM28.073 16.705C28.3306 16.7586 28.5778 16.8235 28.8143 16.8999L28.9126 16.5952C28.6646 16.5152 28.4065 16.4474 28.1382 16.3917L28.073 16.705ZM28.8158 16.9003C29.0524 16.9741 29.2716 17.0565 29.4735 17.1474L29.6049 16.8555C29.39 16.7589 29.1586 16.672 28.911 16.5947L28.8158 16.9003ZM29.3985 16.9251L28.8556 17.9251L29.1367 18.0778L29.6798 17.0778L29.3985 16.9251ZM29.0606 17.8549C28.8828 17.7768 28.6926 17.7059 28.4897 17.6418L28.3934 17.9469C28.5863 18.0079 28.7657 18.0749 28.9318 18.1479L29.0606 17.8549ZM28.4914 17.6424C28.2879 17.5755 28.0756 17.5181 27.8543 17.4701L27.7865 17.7827C27.9975 17.8285 28.1991 17.8831 28.3914 17.9464L28.4914 17.6424ZM27.8543 17.4701C27.6326 17.4219 27.4033 17.3847 27.1663 17.3581L27.1306 17.676C27.3574 17.7015 27.5759 17.7371 27.7865 17.7827L27.8543 17.4701ZM27.1684 17.3583C26.9324 17.3288 26.6914 17.3141 26.4454 17.3141V17.6341C26.6786 17.6341 26.9063 17.648 27.1287 17.6759L27.1684 17.3583ZM26.4454 17.3141C26.0977 17.3141 25.8038 17.3392 25.5668 17.3922L25.6366 17.7045C25.8423 17.6584 26.1108 17.6341 26.4454 17.6341V17.3141ZM25.5663 17.3922C25.3382 17.4439 25.1458 17.5125 24.9959 17.6026L25.1606 17.877C25.271 17.8106 25.4276 17.7517 25.6369 17.7043L25.5663 17.3922ZM24.998 17.6013C24.8514 17.6863 24.7345 17.7912 24.6641 17.9215L24.9455 18.0736C24.9793 18.0112 25.0446 17.9442 25.1585 17.8781L24.998 17.6013ZM24.6633 17.9229C24.6033 18.0365 24.5705 18.1557 24.5705 18.2787H24.8905C24.8905 18.2143 24.9073 18.1459 24.9463 18.0722L24.6633 17.9229ZM24.5705 18.2787C24.5705 18.5187 24.6826 18.7147 24.8836 18.8583L25.0697 18.5978C24.9425 18.5069 24.8905 18.4034 24.8905 18.2787H24.5705ZM24.885 18.8592C25.0887 19.0015 25.378 19.0599 25.7266 19.0599V18.7399C25.4034 18.7399 25.1927 18.6837 25.0682 18.5968L24.885 18.8592ZM25.7266 19.0599C25.8689 19.0599 26.0297 19.0503 26.2081 19.0317L26.1748 18.7135C26.0044 18.7312 25.8551 18.7399 25.7266 18.7399V19.0599ZM26.2102 19.0314C26.3874 19.0106 26.5726 18.9883 26.7655 18.965L26.7268 18.6472C26.5343 18.6707 26.3497 18.6928 26.1727 18.7136L26.2102 19.0314ZM26.7652 18.965C26.959 18.9418 27.1554 18.921 27.3545 18.9029L27.3254 18.5843C27.1234 18.6026 26.9239 18.6237 26.7271 18.6472L26.7652 18.965ZM27.3562 18.9027C27.5543 18.8824 27.7455 18.8723 27.9298 18.8723V18.5523C27.7338 18.5523 27.5318 18.5631 27.3236 18.5845L27.3562 18.9027ZM27.9298 18.8723C28.2775 18.8723 28.5796 18.9115 28.838 18.9871L28.9278 18.6799C28.634 18.5939 28.3007 18.5523 27.9298 18.5523V18.8723ZM28.8383 18.9871C29.1007 19.0632 29.3137 19.1704 29.4817 19.3058L29.6825 19.0565C29.4754 18.8898 29.2223 18.7653 28.9274 18.6797L28.8383 18.9871ZM29.4828 19.3066C29.6506 19.4395 29.7764 19.6002 29.862 19.7899L30.1537 19.6583C30.0466 19.421 29.8886 19.2197 29.6814 19.0557L29.4828 19.3066ZM29.8623 19.7906C29.9479 19.9779 29.9924 20.1919 29.9924 20.4351H30.3124C30.3124 20.1522 30.2606 19.892 30.1534 19.6576L29.8623 19.7906ZM29.9924 20.4351C29.9924 20.7607 29.9167 21.0456 29.7687 21.2947L30.0439 21.4581C30.2241 21.1551 30.3124 20.8125 30.3124 20.4351H29.9924ZM29.7686 21.2951C29.6215 21.544 29.409 21.7581 29.1258 21.9363L29.2962 22.2072C29.6172 22.0051 29.8681 21.7557 30.0441 21.4578L29.7686 21.2951ZM29.1262 21.9362C28.8446 22.1123 28.4999 22.2498 28.0887 22.3456L28.1614 22.6573C28.5993 22.5552 28.9785 22.4061 29.2959 22.2074L29.1262 21.9362ZM28.0897 22.3455C27.6788 22.4386 27.2183 22.4859 26.7071 22.4859V22.8059C27.2377 22.8059 27.7223 22.757 28.1606 22.6575L28.0897 22.3455ZM26.7071 22.4859C26.3703 22.4859 26.0415 22.4643 25.7207 22.421L25.6778 22.7381C26.0134 22.7834 26.3564 22.8059 26.7071 22.8059V22.4859ZM25.7194 22.4208C25.3977 22.38 25.0892 22.3213 24.794 22.245L24.714 22.5547C25.023 22.6347 25.3447 22.6959 25.6791 22.7383L25.7194 22.4208ZM24.7956 22.2453C24.5018 22.1663 24.2214 22.0731 23.954 21.9661L23.8351 22.2632C24.1148 22.3751 24.4071 22.472 24.7124 22.5544L24.7956 22.2453ZM23.9558 21.9669C23.6906 21.8573 23.4455 21.7378 23.2202 21.6087L23.0612 21.8864C23.2994 22.0229 23.5569 22.1482 23.8335 22.2626L23.9558 21.9669ZM23.2743 21.8354L23.9345 20.8315L23.6671 20.6557L23.007 21.6595L23.2743 21.8354Z" fill="black"/>
</g>
<path d="M19.9894 10.2325H18.0656V8.98374H19.9894V7.07687H21.2944V8.98374H23.2236V10.2325H21.2944V12.2406H19.9894V10.2325ZM26.6944 10.2325H24.7705V8.98374H26.6944V7.07687H27.9993V8.98374H29.9287V10.2325H27.9993V12.2406H26.6944V10.2325Z" fill="#FFFF50"/>
<mask id="mask2_5_3" style="mask-type:luminance" maskUnits="userSpaceOnUse" x="17" y="6" width="14" height="7">
<path d="M30.24 6.88H17.76V12.48H30.24V6.88Z" fill="white"/>
<path d="M19.9894 10.2325H18.0656V8.98374H19.9894V7.07687H21.2944V8.98374H23.2236V10.2325H21.2944V12.2406H19.9894V10.2325ZM26.6944 10.2325H24.7705V8.98374H26.6944V7.07687H27.9993V8.98374H29.9287V10.2325H27.9993V12.2406H26.6944V10.2325Z" fill="black"/>
</mask>
<g mask="url(#mask2_5_3)">
<path d="M19.9895 10.2325H20.1495V10.0725H19.9895V10.2325ZM18.0656 10.2325H17.9056V10.3925H18.0656V10.2325ZM18.0656 8.98373V8.82373H17.9056V8.98373H18.0656ZM19.9895 8.98373V9.14373H20.1495V8.98373H19.9895ZM19.9895 7.07687V6.91687H19.8295V7.07687H19.9895ZM21.2944 7.07687H21.4544V6.91687H21.2944V7.07687ZM21.2944 8.98373H21.1344V9.14373H21.2944V8.98373ZM23.2237 8.98373H23.3837V8.82373H23.2237V8.98373ZM23.2237 10.2325V10.3925H23.3837V10.2325H23.2237ZM21.2944 10.2325V10.0725H21.1344V10.2325H21.2944ZM21.2944 12.2406V12.4006H21.4544V12.2406H21.2944ZM19.9895 12.2406H19.8295V12.4006H19.9895V12.2406ZM19.9895 10.0725H18.0656V10.3925H19.9895V10.0725ZM18.2256 10.2325V8.98373H17.9056V10.2325H18.2256ZM18.0656 9.14373H19.9895V8.82373H18.0656V9.14373ZM20.1495 8.98373V7.07687H19.8295V8.98373H20.1495ZM19.9895 7.23687H21.2944V6.91687H19.9895V7.23687ZM21.1344 7.07687V8.98373H21.4544V7.07687H21.1344ZM21.2944 9.14373H23.2237V8.82373H21.2944V9.14373ZM23.0637 8.98373V10.2325H23.3837V8.98373H23.0637ZM23.2237 10.0725H21.2944V10.3925H23.2237V10.0725ZM21.1344 10.2325V12.2406H21.4544V10.2325H21.1344ZM21.2944 12.0806H19.9895V12.4006H21.2944V12.0806ZM20.1495 12.2406V10.2325H19.8295V12.2406H20.1495ZM26.6944 10.2325H26.8544V10.0725H26.6944V10.2325ZM24.7706 10.2325H24.6106V10.3925H24.7706V10.2325ZM24.7706 8.98373V8.82373H24.6106V8.98373H24.7706ZM26.6944 8.98373V9.14373H26.8544V8.98373H26.6944ZM26.6944 7.07687V6.91687H26.5344V7.07687H26.6944ZM27.9994 7.07687H28.1594V6.91687H27.9994V7.07687ZM27.9994 8.98373H27.8394V9.14373H27.9994V8.98373ZM29.9288 8.98373H30.0888V8.82373H29.9288V8.98373ZM29.9288 10.2325V10.3925H30.0888V10.2325H29.9288ZM27.9994 10.2325V10.0725H27.8394V10.2325H27.9994ZM27.9994 12.2406V12.4006H28.1594V12.2406H27.9994ZM26.6944 12.2406H26.5344V12.4006H26.6944V12.2406ZM26.6944 10.0725H24.7706V10.3925H26.6944V10.0725ZM24.9306 10.2325V8.98373H24.6106V10.2325H24.9306ZM24.7706 9.14373H26.6944V8.82373H24.7706V9.14373ZM26.8544 8.98373V7.07687H26.5344V8.98373H26.8544ZM26.6944 7.23687H27.9994V6.91687H26.6944V7.23687ZM27.8394 7.07687V8.98373H28.1594V7.07687H27.8394ZM27.9994 9.14373H29.9288V8.82373H27.9994V9.14373ZM29.7688 8.98373V10.2325H30.0888V8.98373H29.7688ZM29.9288 10.0725H27.9994V10.3925H29.9288V10.0725ZM27.8394 10.2325V12.2406H28.1594V10.2325H27.8394ZM27.9994 12.0806H26.6944V12.4006H27.9994V12.0806ZM26.8544 12.2406V10.2325H26.5344V12.2406H26.8544Z" fill="black"/>
</g>
<path d="M18.6453 6.50787C17.9999 5.85437 17.1797 5.40622 16.2859 5.21864C15.3921 5.03104 14.4637 5.11219 13.6148 5.45209C12.766 5.79198 12.0339 6.37579 11.5086 7.13163C10.9833 7.88747 10.6878 8.78235 10.6584 9.70608C10.6291 10.6298 10.8671 11.5421 11.3433 12.3305C11.8195 13.119 12.5131 13.7493 13.3386 14.1437C14.164 14.5382 15.0854 14.6796 15.9893 14.5506C16.8931 14.4216 17.74 14.0278 18.4256 13.4176L17.4138 12.252C16.9527 12.6623 16.3832 12.9271 15.7753 13.0139C15.1675 13.1007 14.5479 13.0056 13.9927 12.7403C13.4376 12.475 12.9712 12.0512 12.651 11.5209C12.3307 10.9907 12.1706 10.3772 12.1904 9.756C12.2101 9.1348 12.4089 8.53301 12.7621 8.0247C13.1154 7.51641 13.6077 7.12381 14.1785 6.89523C14.7494 6.66665 15.3737 6.61208 15.9748 6.73824C16.5759 6.86438 17.1274 7.16576 17.5615 7.60523L18.6453 6.50787Z" fill="#FFFF50"/>
<path d="M5.76001 27.92L8.16001 26.08L9.52001 27.92L11.84 26.08L13.28 27.92L15.12 26.08L16.64 27.92L18.64 26.08L19.92 27.92L24.08 24" stroke="black" stroke-linecap="round"/>
</g>
<defs>
<clipPath id="clip0_5_3">
<rect width="32" height="32" fill="white"/>
</clipPath>
</defs>
</svg>
