<svg width="200" height="200" viewBox="0 0 200 200" fill="none" xmlns="http://www.w3.org/2000/svg">
<rect width="200" height="200" rx="10" fill="#3ECC5E"/>
<g filter="url(#filter0_d_1_198)">
<path d="M19.1797 86.9219C21.9453 88.2812 24.8984 89.2773 28.0391 89.9102C31.2031 90.5195 34.2852 90.8242 37.2852 90.8242C39.957 90.8242 42.2656 90.6133 44.2109 90.1914C46.1562 89.7461 47.7617 89.1484 49.0273 88.3984C50.293 87.6484 51.2305 86.7578 51.8398 85.7266C52.4492 84.6953 52.7539 83.582 52.7539 82.3867C52.7539 80.7695 52.2031 79.3281 51.1016 78.0625C50 76.7734 48.3242 75.8125 46.0742 75.1797C43.8477 74.5234 41.0234 74.2656 37.6016 74.4062C34.2031 74.5469 30.1953 75.2148 25.5781 76.4102L25.6133 68.1836L46.1445 54.8242H17.0703V45.0508H61.0508V54.6133L42.9805 66.0742C46.2852 66.0742 49.2383 66.4961 51.8398 67.3398C54.4414 68.1836 56.6328 69.3438 58.4141 70.8203C60.1953 72.2969 61.5547 74.043 62.4922 76.0586C63.4297 78.0742 63.8984 80.2422 63.8984 82.5625C63.8984 85.3047 63.2891 87.8008 62.0703 90.0508C60.875 92.2773 59.1289 94.1875 56.832 95.7812C54.5352 97.3516 51.7227 98.5703 48.3945 99.4375C45.0898 100.305 41.3398 100.738 37.1445 100.738C32.6914 100.738 28.5781 100.27 24.8047 99.332C21.0312 98.3711 17.4453 97.0469 14.0469 95.3594L19.1797 86.9219Z" fill="black"/>
</g>
<g filter="url(#filter1_d_1_198)">
<path d="M13.8672 114.841H27.8564C31.9417 114.841 35.4899 115.28 38.501 116.159C41.512 117.038 44.0023 118.299 45.9717 119.943C47.9574 121.571 49.4303 123.557 50.3906 125.9C51.3672 128.228 51.8555 130.848 51.8555 133.762C51.8555 136.529 51.3753 139.092 50.415 141.452C49.4548 143.796 47.9899 145.83 46.0205 147.556C44.0511 149.265 41.5609 150.607 38.5498 151.584C35.5387 152.544 31.9906 153.024 27.9053 153.024L13.8672 153V114.841ZM29.7607 146.311C32.0719 146.311 34.0983 146.018 35.8398 145.432C37.5814 144.829 39.0299 143.983 40.1855 142.893C41.3574 141.802 42.2363 140.484 42.8223 138.938C43.4082 137.391 43.7012 135.666 43.7012 133.762C43.7012 131.89 43.4082 130.205 42.8223 128.708C42.2363 127.194 41.3574 125.917 40.1855 124.875C39.0299 123.817 37.5814 123.003 35.8398 122.434C34.0983 121.864 32.0719 121.579 29.7607 121.579H21.6064V146.311H29.7607ZM72.6318 114.841H80.835L99.292 153H91.1621L88.1104 146.579H65.8203L62.8662 153H54.7119L72.6318 114.841ZM85.0586 140.207L76.8066 122.873L68.7744 140.207H85.0586ZM116.919 143.552L100.244 114.841H109.009L120.752 136.545L132.349 114.841H141.113L124.658 143.503V153H116.919V143.552ZM148.755 141.647C150.138 142.429 151.538 143.137 152.954 143.771C154.386 144.39 155.868 144.919 157.397 145.358C158.927 145.782 160.531 146.107 162.207 146.335C163.9 146.563 165.698 146.677 167.603 146.677C169.897 146.677 171.851 146.53 173.462 146.237C175.073 145.928 176.383 145.513 177.393 144.992C178.418 144.455 179.159 143.82 179.614 143.088C180.086 142.355 180.322 141.558 180.322 140.695C180.322 139.312 179.744 138.221 178.589 137.424C177.433 136.61 175.651 136.203 173.242 136.203C172.184 136.203 171.069 136.276 169.897 136.423C168.726 136.553 167.537 136.7 166.333 136.862C165.145 137.025 163.965 137.18 162.793 137.326C161.637 137.456 160.547 137.521 159.521 137.521C157.812 137.521 156.169 137.302 154.59 136.862C153.027 136.423 151.636 135.764 150.415 134.885C149.211 134.006 148.25 132.907 147.534 131.589C146.818 130.271 146.46 128.732 146.46 126.975C146.46 125.933 146.598 124.899 146.875 123.874C147.168 122.849 147.624 121.872 148.242 120.944C148.877 120 149.691 119.13 150.684 118.332C151.676 117.518 152.873 116.818 154.272 116.232C155.688 115.646 157.316 115.191 159.155 114.865C161.011 114.523 163.118 114.353 165.479 114.353C167.188 114.353 168.905 114.45 170.63 114.646C172.355 114.825 174.032 115.085 175.659 115.427C177.303 115.769 178.882 116.184 180.396 116.672C181.909 117.144 183.317 117.673 184.619 118.259L181.226 124.509C180.151 124.037 178.996 123.605 177.759 123.215C176.522 122.808 175.228 122.458 173.877 122.165C172.526 121.872 171.126 121.644 169.678 121.481C168.245 121.302 166.781 121.213 165.283 121.213C163.151 121.213 161.393 121.368 160.01 121.677C158.643 121.986 157.552 122.385 156.738 122.873C155.924 123.345 155.355 123.882 155.029 124.484C154.72 125.07 154.565 125.656 154.565 126.242C154.565 127.382 155.078 128.317 156.104 129.05C157.129 129.766 158.691 130.124 160.791 130.124C161.637 130.124 162.606 130.067 163.696 129.953C164.803 129.823 165.959 129.685 167.163 129.538C168.384 129.392 169.621 129.261 170.874 129.147C172.144 129.017 173.372 128.952 174.561 128.952C176.807 128.952 178.792 129.204 180.518 129.709C182.259 130.214 183.716 130.938 184.888 131.882C186.06 132.81 186.947 133.941 187.549 135.275C188.151 136.594 188.452 138.075 188.452 139.719C188.452 141.916 187.939 143.877 186.914 145.603C185.905 147.312 184.456 148.76 182.568 149.948C180.697 151.12 178.434 152.015 175.781 152.634C173.128 153.236 170.174 153.537 166.919 153.537C164.771 153.537 162.671 153.399 160.62 153.122C158.569 152.862 156.6 152.487 154.712 151.999C152.84 151.494 151.05 150.9 149.341 150.217C147.648 149.517 146.077 148.752 144.629 147.922L148.755 141.647Z" fill="black"/>
</g>
<g filter="url(#filter2_d_1_198)">
<path d="M124.934 75.9531H112.91V68.1484H124.934V56.2305H133.09V68.1484H145.148V75.9531H133.09V88.5039H124.934V75.9531ZM166.84 75.9531H154.816V68.1484H166.84V56.2305H174.996V68.1484H187.055V75.9531H174.996V88.5039H166.84V75.9531Z" fill="black"/>
</g>
<g filter="url(#filter3_d_1_198)">
<path d="M116.533 52.6742C112.499 48.5898 107.373 45.7889 101.787 44.6165C96.2007 43.444 90.3978 43.9512 85.0926 46.0756C79.7875 48.1999 75.2117 51.8487 71.9286 56.5727C68.6456 61.2967 66.7986 66.8897 66.6151 72.663C66.4316 78.4363 67.9196 84.1379 70.8958 89.0659C73.872 93.9938 78.2066 97.933 83.3659 100.398C88.5252 102.864 94.2839 103.748 99.933 102.941C105.582 102.135 110.875 99.6736 115.16 95.8602L108.836 88.5749C105.954 91.1394 102.395 92.7946 98.5958 93.3369C94.7968 93.8791 90.9241 93.2847 87.4546 91.6267C83.985 89.9688 81.07 87.3198 79.0685 84.0058C77.067 80.6918 76.0664 76.8575 76.1898 72.975C76.3132 69.0925 77.5553 65.3313 79.7631 62.1544C81.9709 58.9776 85.0481 56.5238 88.6158 55.0952C92.1834 53.6666 96.0858 53.3255 99.8425 54.114C103.599 54.9024 107.046 56.786 109.759 59.5327L116.533 52.6742Z" fill="black"/>
</g>
<defs>
<filter id="filter0_d_1_198" x="14.0469" y="45.0508" width="54.8516" height="60.6875" filterUnits="userSpaceOnUse" color-interpolation-filters="sRGB">
<feFlood flood-opacity="0" result="BackgroundImageFix"/>
<feColorMatrix in="SourceAlpha" type="matrix" values="0 0 0 0 0 0 0 0 0 0 0 0 0 0 0 0 0 0 127 0" result="hardAlpha"/>
<feOffset dx="4" dy="4"/>
<feGaussianBlur stdDeviation="0.5"/>
<feComposite in2="hardAlpha" operator="out"/>
<feColorMatrix type="matrix" values="0 0 0 0 0 0 0 0 0 0 0 0 0 0 0 0 0 0 0.25 0"/>
<feBlend mode="plus-darker" in2="BackgroundImageFix" result="effect1_dropShadow_1_198"/>
<feBlend mode="normal" in="SourceGraphic" in2="effect1_dropShadow_1_198" result="shape"/>
</filter>
<filter id="filter1_d_1_198" x="13.8672" y="114.353" width="179.585" height="44.1846" filterUnits="userSpaceOnUse" color-interpolation-filters="sRGB">
<feFlood flood-opacity="0" result="BackgroundImageFix"/>
<feColorMatrix in="SourceAlpha" type="matrix" values="0 0 0 0 0 0 0 0 0 0 0 0 0 0 0 0 0 0 127 0" result="hardAlpha"/>
<feOffset dx="4" dy="4"/>
<feGaussianBlur stdDeviation="0.5"/>
<feComposite in2="hardAlpha" operator="out"/>
<feColorMatrix type="matrix" values="0 0 0 0 0 0 0 0 0 0 0 0 0 0 0 0 0 0 0.25 0"/>
<feBlend mode="plus-darker" in2="BackgroundImageFix" result="effect1_dropShadow_1_198"/>
<feBlend mode="normal" in="SourceGraphic" in2="effect1_dropShadow_1_198" result="shape"/>
</filter>
<filter id="filter2_d_1_198" x="112.91" y="56.2305" width="79.1445" height="37.2734" filterUnits="userSpaceOnUse" color-interpolation-filters="sRGB">
<feFlood flood-opacity="0" result="BackgroundImageFix"/>
<feColorMatrix in="SourceAlpha" type="matrix" values="0 0 0 0 0 0 0 0 0 0 0 0 0 0 0 0 0 0 127 0" result="hardAlpha"/>
<feOffset dx="4" dy="4"/>
<feGaussianBlur stdDeviation="0.5"/>
<feComposite in2="hardAlpha" operator="out"/>
<feColorMatrix type="matrix" values="0 0 0 0 0 0 0 0 0 0 0 0 0 0 0 0 0 0 0.25 0"/>
<feBlend mode="plus-darker" in2="BackgroundImageFix" result="effect1_dropShadow_1_198"/>
<feBlend mode="normal" in="SourceGraphic" in2="effect1_dropShadow_1_198" result="shape"/>
</filter>
<filter id="filter3_d_1_198" x="66.6" y="44" width="54.9329" height="64.2313" filterUnits="userSpaceOnUse" color-interpolation-filters="sRGB">
<feFlood flood-opacity="0" result="BackgroundImageFix"/>
<feColorMatrix in="SourceAlpha" type="matrix" values="0 0 0 0 0 0 0 0 0 0 0 0 0 0 0 0 0 0 127 0" result="hardAlpha"/>
<feOffset dx="4" dy="4"/>
<feGaussianBlur stdDeviation="0.5"/>
<feComposite in2="hardAlpha" operator="out"/>
<feColorMatrix type="matrix" values="0 0 0 0 0 0 0 0 0 0 0 0 0 0 0 0 0 0 0.25 0"/>
<feBlend mode="plus-darker" in2="BackgroundImageFix" result="effect1_dropShadow_1_198"/>
<feBlend mode="normal" in="SourceGraphic" in2="effect1_dropShadow_1_198" result="shape"/>
</filter>
</defs>
</svg>
