<svg width="200" height="200" viewBox="0 0 200 200" fill="none" xmlns="http://www.w3.org/2000/svg">
<rect width="200" height="200" rx="10" fill="#3ECC5F"/>
<mask id="path-2-outside-1_1_198" maskUnits="userSpaceOnUse" x="12" y="32" width="53" height="58" fill="black">
<rect fill="white" x="12" y="32" width="53" height="58"/>
<path d="M19.1797 74.9219C21.9453 76.2812 24.8984 77.2773 28.0391 77.9102C31.2031 78.5195 34.2852 78.8242 37.2852 78.8242C39.957 78.8242 42.2656 78.6133 44.2109 78.1914C46.1562 77.7461 47.7617 77.1484 49.0273 76.3984C50.293 75.6484 51.2305 74.7578 51.8398 73.7266C52.4492 72.6953 52.7539 71.582 52.7539 70.3867C52.7539 68.7695 52.2031 67.3281 51.1016 66.0625C50 64.7734 48.3242 63.8125 46.0742 63.1797C43.8477 62.5234 41.0234 62.2656 37.6016 62.4062C34.2031 62.5469 30.1953 63.2148 25.5781 64.4102L25.6133 56.1836L46.1445 42.8242H17.0703V33.0508H61.0508V42.6133L42.9805 54.0742C46.2852 54.0742 49.2383 54.4961 51.8398 55.3398C54.4414 56.1836 56.6328 57.3438 58.4141 58.8203C60.1953 60.2969 61.5547 62.043 62.4922 64.0586C63.4297 66.0742 63.8984 68.2422 63.8984 70.5625C63.8984 73.3047 63.2891 75.8008 62.0703 78.0508C60.875 80.2773 59.1289 82.1875 56.832 83.7812C54.5352 85.3516 51.7227 86.5703 48.3945 87.4375C45.0898 88.3047 41.3398 88.7383 37.1445 88.7383C32.6914 88.7383 28.5781 88.2695 24.8047 87.332C21.0312 86.3711 17.4453 85.0469 14.0469 83.3594L19.1797 74.9219Z"/>
</mask>
<path d="M19.1797 74.9219C21.9453 76.2812 24.8984 77.2773 28.0391 77.9102C31.2031 78.5195 34.2852 78.8242 37.2852 78.8242C39.957 78.8242 42.2656 78.6133 44.2109 78.1914C46.1562 77.7461 47.7617 77.1484 49.0273 76.3984C50.293 75.6484 51.2305 74.7578 51.8398 73.7266C52.4492 72.6953 52.7539 71.582 52.7539 70.3867C52.7539 68.7695 52.2031 67.3281 51.1016 66.0625C50 64.7734 48.3242 63.8125 46.0742 63.1797C43.8477 62.5234 41.0234 62.2656 37.6016 62.4062C34.2031 62.5469 30.1953 63.2148 25.5781 64.4102L25.6133 56.1836L46.1445 42.8242H17.0703V33.0508H61.0508V42.6133L42.9805 54.0742C46.2852 54.0742 49.2383 54.4961 51.8398 55.3398C54.4414 56.1836 56.6328 57.3438 58.4141 58.8203C60.1953 60.2969 61.5547 62.043 62.4922 64.0586C63.4297 66.0742 63.8984 68.2422 63.8984 70.5625C63.8984 73.3047 63.2891 75.8008 62.0703 78.0508C60.875 80.2773 59.1289 82.1875 56.832 83.7812C54.5352 85.3516 51.7227 86.5703 48.3945 87.4375C45.0898 88.3047 41.3398 88.7383 37.1445 88.7383C32.6914 88.7383 28.5781 88.2695 24.8047 87.332C21.0312 86.3711 17.4453 85.0469 14.0469 83.3594L19.1797 74.9219Z" fill="#FFFF50"/>
<path d="M19.1797 74.9219L19.6208 74.0244L18.8004 73.6212L18.3254 74.4022L19.1797 74.9219ZM28.0391 77.9102L27.8415 78.8905L27.8499 78.8921L28.0391 77.9102ZM44.2109 78.1914L44.4229 79.1688L44.4341 79.1662L44.2109 78.1914ZM51.1016 66.0625L50.3413 66.7122L50.3473 66.719L51.1016 66.0625ZM46.0742 63.1797L45.7915 64.139L45.8035 64.1423L46.0742 63.1797ZM37.6016 62.4062L37.5605 61.4071L37.5602 61.4071L37.6016 62.4062ZM25.5781 64.4102L24.5781 64.4059L24.5726 65.7034L25.8287 65.3782L25.5781 64.4102ZM25.6133 56.1836L25.0679 55.3454L24.6156 55.6397L24.6133 56.1793L25.6133 56.1836ZM46.1445 42.8242L46.6899 43.6624L49.5149 41.8242H46.1445V42.8242ZM17.0703 42.8242H16.0703V43.8242H17.0703V42.8242ZM17.0703 33.0508V32.0508H16.0703V33.0508H17.0703ZM61.0508 33.0508H62.0508V32.0508H61.0508V33.0508ZM61.0508 42.6133L61.5864 43.4578L62.0508 43.1632V42.6133H61.0508ZM42.9805 54.0742L42.4449 53.2297L39.5367 55.0742H42.9805V54.0742ZM62.0703 78.0508L61.191 77.5745L61.1892 77.5778L62.0703 78.0508ZM56.832 83.7812L57.3964 84.6068L57.4021 84.6028L56.832 83.7812ZM48.3945 87.4375L48.1424 86.4698L48.1407 86.4702L48.3945 87.4375ZM24.8047 87.332L24.5579 88.3011L24.5636 88.3025L24.8047 87.332ZM14.0469 83.3594L13.1925 82.8397L12.6263 83.7705L13.6021 84.255L14.0469 83.3594ZM18.7386 75.8193C21.5845 77.2182 24.6198 78.2413 27.8415 78.8905L28.2366 76.9299C25.177 76.3134 22.3061 75.3443 19.6208 74.0244L18.7386 75.8193ZM27.8499 78.8921C31.0718 79.5126 34.2172 79.8242 37.2852 79.8242V77.8242C34.3531 77.8242 31.3345 77.5265 28.2282 76.9282L27.8499 78.8921ZM37.2852 79.8242C40.0057 79.8242 42.3889 79.6098 44.4229 79.1687L43.999 77.2141C42.1423 77.6168 39.9083 77.8242 37.2852 77.8242V79.8242ZM44.4341 79.1662C46.4469 78.7054 48.1571 78.0765 49.5371 77.2587L48.5175 75.5381C47.3663 76.2204 45.8656 76.7868 43.9878 77.2166L44.4341 79.1662ZM49.5371 77.2587C50.9148 76.4423 51.9884 75.4409 52.7008 74.2353L50.9789 73.2178C50.4726 74.0747 49.6711 74.8546 48.5175 75.5381L49.5371 77.2587ZM52.7008 74.2353C53.401 73.0503 53.7539 71.7614 53.7539 70.3867H51.7539C51.7539 71.4027 51.4974 72.3403 50.9789 73.2178L52.7008 74.2353ZM53.7539 70.3867C53.7539 68.5185 53.1094 66.8462 51.8559 65.406L50.3473 66.719C51.2969 67.8101 51.7539 69.0206 51.7539 70.3867H53.7539ZM51.8618 65.4128C50.5914 63.9263 48.7156 62.8838 46.345 62.217L45.8035 64.1423C47.9328 64.7412 49.4086 65.6206 50.3413 66.7122L51.8618 65.4128ZM46.3569 62.2205C43.9882 61.5223 41.0448 61.2639 37.5605 61.4071L37.6426 63.4054C41.0021 63.2673 43.7071 63.5246 45.7915 64.1389L46.3569 62.2205ZM37.5602 61.4071C34.0693 61.5516 29.9881 62.2355 25.3275 63.4421L25.8287 65.3782C30.4025 64.1942 34.337 63.5422 37.6429 63.4054L37.5602 61.4071ZM26.5781 64.4144L26.6133 56.1879L24.6133 56.1793L24.5781 64.4059L26.5781 64.4144ZM26.1587 57.0218L46.6899 43.6624L45.5991 41.986L25.0679 55.3454L26.1587 57.0218ZM46.1445 41.8242H17.0703V43.8242H46.1445V41.8242ZM18.0703 42.8242V33.0508H16.0703V42.8242H18.0703ZM17.0703 34.0508H61.0508V32.0508H17.0703V34.0508ZM60.0508 33.0508V42.6133H62.0508V33.0508H60.0508ZM60.5152 41.7688L42.4449 53.2297L43.5161 54.9187L61.5864 43.4578L60.5152 41.7688ZM42.9805 55.0742C46.2015 55.0742 49.0477 55.4856 51.5313 56.2911L52.1483 54.3886C49.4289 53.5066 46.3688 53.0742 42.9805 53.0742V55.0742ZM51.5313 56.2911C54.034 57.1027 56.1081 58.2077 57.7759 59.5902L59.0523 58.0504C57.1576 56.4798 54.8488 55.2644 52.1483 54.3886L51.5313 56.2911ZM57.7759 59.5902C59.4477 60.976 60.7131 62.6048 61.5855 64.4803L63.3989 63.6369C62.3963 61.4812 60.9429 59.6177 59.0523 58.0504L57.7759 59.5902ZM61.5855 64.4803C62.4588 66.358 62.8984 68.3813 62.8984 70.5625H64.8984C64.8984 68.103 64.4006 65.7904 63.3989 63.6369L61.5855 64.4803ZM62.8984 70.5625C62.8984 73.1506 62.3249 75.4812 61.191 77.5745L62.9496 78.5271C64.2532 76.1204 64.8984 73.4588 64.8984 70.5625H62.8984ZM61.1892 77.5778C60.0763 79.651 58.4431 81.4462 56.2619 82.9597L57.4021 84.6028C59.8147 82.9288 61.6737 80.9037 62.9514 78.5238L61.1892 77.5778ZM56.2676 82.9557C54.0853 84.4477 51.3844 85.6251 48.1424 86.4698L48.6467 88.4052C52.0609 87.5156 54.985 86.2554 57.3964 84.6068L56.2676 82.9557ZM48.1407 86.4702C44.9352 87.3114 41.2728 87.7383 37.1445 87.7383V89.7383C41.4069 89.7383 45.2445 89.298 48.6483 88.4048L48.1407 86.4702ZM37.1445 87.7383C32.7612 87.7383 28.7299 87.2768 25.0458 86.3615L24.5636 88.3025C28.4263 89.2622 32.6216 89.7383 37.1445 89.7383V87.7383ZM25.0515 86.363C21.3446 85.419 17.8252 84.119 14.4916 82.4637L13.6021 84.255C17.0654 85.9747 20.7179 87.3232 24.5579 88.3011L25.0515 86.363ZM14.9012 83.8791L20.034 75.4416L18.3254 74.4022L13.1925 82.8397L14.9012 83.8791Z" fill="black" mask="url(#path-2-outside-1_1_198)"/>
<mask id="path-4-outside-2_1_198" maskUnits="userSpaceOnUse" x="12" y="101" width="178" height="42" fill="black">
<rect fill="white" x="12" y="101" width="178" height="42"/>
<path d="M13.8672 102.841H27.8564C31.9417 102.841 35.4899 103.28 38.501 104.159C41.512 105.038 44.0023 106.299 45.9717 107.943C47.9574 109.571 49.4303 111.557 50.3906 113.9C51.3672 116.228 51.8555 118.848 51.8555 121.762C51.8555 124.529 51.3753 127.092 50.415 129.452C49.4548 131.796 47.9899 133.83 46.0205 135.556C44.0511 137.265 41.5609 138.607 38.5498 139.584C35.5387 140.544 31.9906 141.024 27.9053 141.024L13.8672 141V102.841ZM29.7607 134.311C32.0719 134.311 34.0983 134.018 35.8398 133.432C37.5814 132.829 39.0299 131.983 40.1855 130.893C41.3574 129.802 42.2363 128.484 42.8223 126.938C43.4082 125.391 43.7012 123.666 43.7012 121.762C43.7012 119.89 43.4082 118.205 42.8223 116.708C42.2363 115.194 41.3574 113.917 40.1855 112.875C39.0299 111.817 37.5814 111.003 35.8398 110.434C34.0983 109.864 32.0719 109.579 29.7607 109.579H21.6064V134.311H29.7607ZM72.6318 102.841H80.835L99.292 141H91.1621L88.1104 134.579H65.8203L62.8662 141H54.7119L72.6318 102.841ZM85.0586 128.207L76.8066 110.873L68.7744 128.207H85.0586ZM116.919 131.552L100.244 102.841H109.009L120.752 124.545L132.349 102.841H141.113L124.658 131.503V141H116.919V131.552ZM148.755 129.647C150.138 130.429 151.538 131.137 152.954 131.771C154.386 132.39 155.868 132.919 157.397 133.358C158.927 133.782 160.531 134.107 162.207 134.335C163.9 134.563 165.698 134.677 167.603 134.677C169.897 134.677 171.851 134.53 173.462 134.237C175.073 133.928 176.383 133.513 177.393 132.992C178.418 132.455 179.159 131.82 179.614 131.088C180.086 130.355 180.322 129.558 180.322 128.695C180.322 127.312 179.744 126.221 178.589 125.424C177.433 124.61 175.651 124.203 173.242 124.203C172.184 124.203 171.069 124.276 169.897 124.423C168.726 124.553 167.537 124.7 166.333 124.862C165.145 125.025 163.965 125.18 162.793 125.326C161.637 125.456 160.547 125.521 159.521 125.521C157.812 125.521 156.169 125.302 154.59 124.862C153.027 124.423 151.636 123.764 150.415 122.885C149.211 122.006 148.25 120.907 147.534 119.589C146.818 118.271 146.46 116.732 146.46 114.975C146.46 113.933 146.598 112.899 146.875 111.874C147.168 110.849 147.624 109.872 148.242 108.944C148.877 108 149.691 107.13 150.684 106.332C151.676 105.518 152.873 104.818 154.272 104.232C155.688 103.646 157.316 103.191 159.155 102.865C161.011 102.523 163.118 102.353 165.479 102.353C167.188 102.353 168.905 102.45 170.63 102.646C172.355 102.825 174.032 103.085 175.659 103.427C177.303 103.769 178.882 104.184 180.396 104.672C181.909 105.144 183.317 105.673 184.619 106.259L181.226 112.509C180.151 112.037 178.996 111.605 177.759 111.215C176.522 110.808 175.228 110.458 173.877 110.165C172.526 109.872 171.126 109.644 169.678 109.481C168.245 109.302 166.781 109.213 165.283 109.213C163.151 109.213 161.393 109.368 160.01 109.677C158.643 109.986 157.552 110.385 156.738 110.873C155.924 111.345 155.355 111.882 155.029 112.484C154.72 113.07 154.565 113.656 154.565 114.242C154.565 115.382 155.078 116.317 156.104 117.05C157.129 117.766 158.691 118.124 160.791 118.124C161.637 118.124 162.606 118.067 163.696 117.953C164.803 117.823 165.959 117.685 167.163 117.538C168.384 117.392 169.621 117.261 170.874 117.147C172.144 117.017 173.372 116.952 174.561 116.952C176.807 116.952 178.792 117.204 180.518 117.709C182.259 118.214 183.716 118.938 184.888 119.882C186.06 120.81 186.947 121.941 187.549 123.275C188.151 124.594 188.452 126.075 188.452 127.719C188.452 129.916 187.939 131.877 186.914 133.603C185.905 135.312 184.456 136.76 182.568 137.948C180.697 139.12 178.434 140.015 175.781 140.634C173.128 141.236 170.174 141.537 166.919 141.537C164.771 141.537 162.671 141.399 160.62 141.122C158.569 140.862 156.6 140.487 154.712 139.999C152.84 139.494 151.05 138.9 149.341 138.217C147.648 137.517 146.077 136.752 144.629 135.922L148.755 129.647Z"/>
</mask>
<path d="M13.8672 102.841H27.8564C31.9417 102.841 35.4899 103.28 38.501 104.159C41.512 105.038 44.0023 106.299 45.9717 107.943C47.9574 109.571 49.4303 111.557 50.3906 113.9C51.3672 116.228 51.8555 118.848 51.8555 121.762C51.8555 124.529 51.3753 127.092 50.415 129.452C49.4548 131.796 47.9899 133.83 46.0205 135.556C44.0511 137.265 41.5609 138.607 38.5498 139.584C35.5387 140.544 31.9906 141.024 27.9053 141.024L13.8672 141V102.841ZM29.7607 134.311C32.0719 134.311 34.0983 134.018 35.8398 133.432C37.5814 132.829 39.0299 131.983 40.1855 130.893C41.3574 129.802 42.2363 128.484 42.8223 126.938C43.4082 125.391 43.7012 123.666 43.7012 121.762C43.7012 119.89 43.4082 118.205 42.8223 116.708C42.2363 115.194 41.3574 113.917 40.1855 112.875C39.0299 111.817 37.5814 111.003 35.8398 110.434C34.0983 109.864 32.0719 109.579 29.7607 109.579H21.6064V134.311H29.7607ZM72.6318 102.841H80.835L99.292 141H91.1621L88.1104 134.579H65.8203L62.8662 141H54.7119L72.6318 102.841ZM85.0586 128.207L76.8066 110.873L68.7744 128.207H85.0586ZM116.919 131.552L100.244 102.841H109.009L120.752 124.545L132.349 102.841H141.113L124.658 131.503V141H116.919V131.552ZM148.755 129.647C150.138 130.429 151.538 131.137 152.954 131.771C154.386 132.39 155.868 132.919 157.397 133.358C158.927 133.782 160.531 134.107 162.207 134.335C163.9 134.563 165.698 134.677 167.603 134.677C169.897 134.677 171.851 134.53 173.462 134.237C175.073 133.928 176.383 133.513 177.393 132.992C178.418 132.455 179.159 131.82 179.614 131.088C180.086 130.355 180.322 129.558 180.322 128.695C180.322 127.312 179.744 126.221 178.589 125.424C177.433 124.61 175.651 124.203 173.242 124.203C172.184 124.203 171.069 124.276 169.897 124.423C168.726 124.553 167.537 124.7 166.333 124.862C165.145 125.025 163.965 125.18 162.793 125.326C161.637 125.456 160.547 125.521 159.521 125.521C157.812 125.521 156.169 125.302 154.59 124.862C153.027 124.423 151.636 123.764 150.415 122.885C149.211 122.006 148.25 120.907 147.534 119.589C146.818 118.271 146.46 116.732 146.46 114.975C146.46 113.933 146.598 112.899 146.875 111.874C147.168 110.849 147.624 109.872 148.242 108.944C148.877 108 149.691 107.13 150.684 106.332C151.676 105.518 152.873 104.818 154.272 104.232C155.688 103.646 157.316 103.191 159.155 102.865C161.011 102.523 163.118 102.353 165.479 102.353C167.188 102.353 168.905 102.45 170.63 102.646C172.355 102.825 174.032 103.085 175.659 103.427C177.303 103.769 178.882 104.184 180.396 104.672C181.909 105.144 183.317 105.673 184.619 106.259L181.226 112.509C180.151 112.037 178.996 111.605 177.759 111.215C176.522 110.808 175.228 110.458 173.877 110.165C172.526 109.872 171.126 109.644 169.678 109.481C168.245 109.302 166.781 109.213 165.283 109.213C163.151 109.213 161.393 109.368 160.01 109.677C158.643 109.986 157.552 110.385 156.738 110.873C155.924 111.345 155.355 111.882 155.029 112.484C154.72 113.07 154.565 113.656 154.565 114.242C154.565 115.382 155.078 116.317 156.104 117.05C157.129 117.766 158.691 118.124 160.791 118.124C161.637 118.124 162.606 118.067 163.696 117.953C164.803 117.823 165.959 117.685 167.163 117.538C168.384 117.392 169.621 117.261 170.874 117.147C172.144 117.017 173.372 116.952 174.561 116.952C176.807 116.952 178.792 117.204 180.518 117.709C182.259 118.214 183.716 118.938 184.888 119.882C186.06 120.81 186.947 121.941 187.549 123.275C188.151 124.594 188.452 126.075 188.452 127.719C188.452 129.916 187.939 131.877 186.914 133.603C185.905 135.312 184.456 136.76 182.568 137.948C180.697 139.12 178.434 140.015 175.781 140.634C173.128 141.236 170.174 141.537 166.919 141.537C164.771 141.537 162.671 141.399 160.62 141.122C158.569 140.862 156.6 140.487 154.712 139.999C152.84 139.494 151.05 138.9 149.341 138.217C147.648 137.517 146.077 136.752 144.629 135.922L148.755 129.647Z" fill="#FFFF50"/>
<path d="M13.8672 102.841V101.841H12.8672V102.841H13.8672ZM45.9717 107.943L45.3308 108.711L45.3378 108.717L45.9717 107.943ZM50.3906 113.9L49.4653 114.28L49.4685 114.287L50.3906 113.9ZM50.415 129.452L51.3404 129.831L51.3413 129.829L50.415 129.452ZM46.0205 135.556L46.6759 136.311L46.6795 136.308L46.0205 135.556ZM38.5498 139.584L38.8536 140.537L38.8583 140.535L38.5498 139.584ZM27.9053 141.024L27.9035 142.024H27.9053V141.024ZM13.8672 141H12.8672V141.998L13.8654 142L13.8672 141ZM35.8398 133.432L36.1587 134.379L36.1667 134.377L35.8398 133.432ZM40.1855 130.893L39.5043 130.16L39.4992 130.165L40.1855 130.893ZM42.8223 116.708L41.8897 117.069L41.891 117.072L42.8223 116.708ZM40.1855 112.875L39.5103 113.613L39.5157 113.618L39.5212 113.622L40.1855 112.875ZM21.6064 109.579V108.579H20.6064V109.579H21.6064ZM21.6064 134.311H20.6064V135.311H21.6064V134.311ZM13.8672 103.841H27.8564V101.841H13.8672V103.841ZM27.8564 103.841C31.8739 103.841 35.3234 104.273 38.2208 105.119L38.7812 103.199C35.6564 102.287 32.0096 101.841 27.8564 101.841V103.841ZM38.2208 105.119C41.1284 105.968 43.4879 107.173 45.3309 108.711L46.6125 107.176C44.5166 105.426 41.8957 104.108 38.7812 103.199L38.2208 105.119ZM45.3378 108.717C47.1969 110.241 48.5688 112.092 49.4653 114.28L51.316 113.521C50.2919 111.022 48.7178 108.901 46.6056 107.17L45.3378 108.717ZM49.4685 114.287C50.3864 116.475 50.8555 118.961 50.8555 121.762H52.8555C52.8555 118.736 52.348 115.981 51.3127 113.513L49.4685 114.287ZM50.8555 121.762C50.8555 124.411 50.3963 126.845 49.4888 129.075L51.3413 129.829C52.3543 127.339 52.8555 124.647 52.8555 121.762H50.8555ZM49.4897 129.073C48.5901 131.269 47.2185 133.177 45.3616 134.803L46.6795 136.308C48.7613 134.484 50.3194 132.323 51.3404 129.831L49.4897 129.073ZM45.3651 134.8C43.5162 136.405 41.1514 137.689 38.2413 138.633L38.8583 140.535C41.9703 139.526 44.586 138.125 46.6759 136.311L45.3651 134.8ZM38.246 138.631C35.357 139.553 31.916 140.024 27.9053 140.024V142.024C32.0652 142.024 35.7204 141.536 38.8536 140.537L38.246 138.631ZM27.907 140.024L13.8689 140L13.8654 142L27.9035 142.024L27.907 140.024ZM14.8672 141V102.841H12.8672V141H14.8672ZM29.7607 135.311C32.1537 135.311 34.2919 135.008 36.1587 134.379L35.521 132.484C33.9048 133.028 31.9902 133.311 29.7607 133.311V135.311ZM36.1667 134.377C38.0209 133.736 39.598 132.822 40.8719 131.62L39.4992 130.165C38.4619 131.144 37.1419 131.923 35.513 132.487L36.1667 134.377ZM40.8668 131.625C42.155 130.426 43.1188 128.977 43.7574 127.292L41.8872 126.583C41.3538 127.991 40.5599 129.178 39.5043 130.161L40.8668 131.625ZM43.7574 127.292C44.3922 125.617 44.7012 123.769 44.7012 121.762H42.7012C42.7012 123.563 42.4242 125.166 41.8872 126.583L43.7574 127.292ZM44.7012 121.762C44.7012 119.785 44.3917 117.975 43.7535 116.344L41.891 117.072C42.4247 118.436 42.7012 119.995 42.7012 121.762H44.7012ZM43.7548 116.347C43.1136 114.69 42.1449 113.279 40.8499 112.128L39.5212 113.622C40.5699 114.555 41.3591 115.698 41.8897 117.069L43.7548 116.347ZM40.8608 112.137C39.584 110.968 38.0048 110.09 36.1507 109.483L35.529 111.384C37.158 111.917 38.4759 112.666 39.5103 113.613L40.8608 112.137ZM36.1507 109.483C34.2866 108.873 32.1512 108.579 29.7607 108.579V110.579C31.9926 110.579 33.91 110.854 35.529 111.384L36.1507 109.483ZM29.7607 108.579H21.6064V110.579H29.7607V108.579ZM20.6064 109.579V134.311H22.6064V109.579H20.6064ZM21.6064 135.311H29.7607V133.311H21.6064V135.311ZM72.6318 102.841V101.841H71.9967L71.7267 102.416L72.6318 102.841ZM80.835 102.841L81.7352 102.405L81.4621 101.841H80.835V102.841ZM99.292 141V142H100.887L100.192 140.565L99.292 141ZM91.1621 141L90.2589 141.429L90.5302 142H91.1621V141ZM88.1104 134.579L89.0135 134.15L88.7423 133.579H88.1104V134.579ZM65.8203 134.579V133.579H65.1796L64.9118 134.161L65.8203 134.579ZM62.8662 141V142H63.5069L63.7747 141.418L62.8662 141ZM54.7119 141L53.8068 140.575L53.1375 142H54.7119V141ZM85.0586 128.207V129.207H86.6422L85.9615 127.777L85.0586 128.207ZM76.8066 110.873L77.7095 110.443L76.7944 108.521L75.8993 110.453L76.8066 110.873ZM68.7744 128.207L67.8671 127.787L67.2089 129.207H68.7744V128.207ZM72.6318 103.841H80.835V101.841H72.6318V103.841ZM79.9347 103.276L98.3918 141.435L100.192 140.565L81.7352 102.405L79.9347 103.276ZM99.292 140H91.1621V142H99.292V140ZM92.0653 140.571L89.0135 134.15L87.2072 135.008L90.2589 141.429L92.0653 140.571ZM88.1104 133.579H65.8203V135.579H88.1104V133.579ZM64.9118 134.161L61.9577 140.582L63.7747 141.418L66.7288 134.997L64.9118 134.161ZM62.8662 140H54.7119V142H62.8662V140ZM55.6171 141.425L73.537 103.266L71.7267 102.416L53.8068 140.575L55.6171 141.425ZM85.9615 127.777L77.7095 110.443L75.9037 111.303L84.1557 128.637L85.9615 127.777ZM75.8993 110.453L67.8671 127.787L69.6817 128.627L77.714 111.293L75.8993 110.453ZM68.7744 129.207H85.0586V127.207H68.7744V129.207ZM116.919 131.552H117.919V131.282L117.784 131.05L116.919 131.552ZM100.244 102.841V101.841H98.5069L99.3794 103.343L100.244 102.841ZM109.009 102.841L109.888 102.365L109.605 101.841H109.009V102.841ZM120.752 124.545L119.872 125.021L120.757 126.657L121.634 125.016L120.752 124.545ZM132.349 102.841V101.841H131.749L131.467 102.37L132.349 102.841ZM141.113 102.841L141.981 103.339L142.84 101.841H141.113V102.841ZM124.658 131.503L123.791 131.005L123.658 131.236V131.503H124.658ZM124.658 141V142H125.658V141H124.658ZM116.919 141H115.919V142H116.919V141ZM117.784 131.05L101.109 102.339L99.3794 103.343L116.054 132.054L117.784 131.05ZM100.244 103.841H109.009V101.841H100.244V103.841ZM108.129 103.317L119.872 125.021L121.631 124.069L109.888 102.365L108.129 103.317ZM121.634 125.016L133.231 103.312L131.467 102.37L119.87 124.074L121.634 125.016ZM132.349 103.841H141.113V101.841H132.349V103.841ZM140.246 102.343L123.791 131.005L125.525 132.001L141.981 103.339L140.246 102.343ZM123.658 131.503V141H125.658V131.503H123.658ZM124.658 140H116.919V142H124.658V140ZM117.919 141V131.552H115.919V141H117.919ZM148.755 129.647L149.247 128.777L148.433 128.317L147.919 129.098L148.755 129.647ZM152.954 131.771L152.545 132.684L152.558 132.69L152.954 131.771ZM157.397 133.358L157.121 134.32L157.131 134.322L157.397 133.358ZM162.207 134.335L162.072 135.326L162.074 135.326L162.207 134.335ZM173.462 134.237L173.641 135.221L173.65 135.219L173.462 134.237ZM177.393 132.992L177.851 133.881L177.857 133.878L177.393 132.992ZM179.614 131.088L178.774 130.546L178.769 130.553L178.765 130.56L179.614 131.088ZM178.589 125.424L178.013 126.241L178.021 126.247L178.589 125.424ZM169.897 124.423L170.008 125.417L170.021 125.415L169.897 124.423ZM166.333 124.862L166.199 123.871L166.197 123.872L166.333 124.862ZM162.793 125.326L162.905 126.32L162.917 126.318L162.793 125.326ZM154.59 124.862L154.319 125.825L154.322 125.826L154.59 124.862ZM150.415 122.885L149.826 123.693L149.831 123.696L150.415 122.885ZM146.875 111.874L145.913 111.599L145.911 111.606L145.91 111.614L146.875 111.874ZM148.242 108.944L147.412 108.386L147.41 108.39L148.242 108.944ZM150.684 106.332L151.31 107.112L151.318 107.105L150.684 106.332ZM154.272 104.232L153.89 103.308L153.886 103.31L154.272 104.232ZM159.155 102.865L159.33 103.85L159.336 103.849L159.155 102.865ZM170.63 102.646L170.517 103.639L170.527 103.64L170.63 102.646ZM175.659 103.427L175.454 104.405L175.456 104.406L175.659 103.427ZM180.396 104.672L180.088 105.624L180.098 105.627L180.396 104.672ZM184.619 106.259L185.498 106.736L186.012 105.789L185.03 105.347L184.619 106.259ZM181.226 112.509L180.823 113.424L181.665 113.794L182.104 112.986L181.226 112.509ZM177.759 111.215L177.446 112.165L177.458 112.168L177.759 111.215ZM169.678 109.481L169.554 110.474L169.566 110.475L169.678 109.481ZM160.01 109.677L159.792 108.701L159.789 108.701L160.01 109.677ZM156.738 110.873L157.24 111.738L157.246 111.734L157.253 111.731L156.738 110.873ZM155.029 112.484L154.15 112.009L154.145 112.018L155.029 112.484ZM156.104 117.05L155.522 117.864L155.531 117.87L156.104 117.05ZM163.696 117.953L163.8 118.948L163.813 118.946L163.696 117.953ZM167.163 117.538L167.044 116.545L167.042 116.545L167.163 117.538ZM170.874 117.147L170.965 118.143L170.976 118.142L170.874 117.147ZM180.518 117.709L180.237 118.669L180.239 118.669L180.518 117.709ZM184.888 119.882L184.26 120.661L184.267 120.666L184.888 119.882ZM187.549 123.275L186.637 123.687L186.639 123.691L187.549 123.275ZM186.914 133.603L186.054 133.092L186.053 133.094L186.914 133.603ZM182.568 137.948L183.099 138.796L183.101 138.795L182.568 137.948ZM175.781 140.634L176.003 141.609L176.008 141.608L175.781 140.634ZM160.62 141.122L160.754 140.131L160.746 140.13L160.62 141.122ZM154.712 139.999L154.452 140.965L154.462 140.967L154.712 139.999ZM149.341 138.217L148.959 139.141L148.969 139.145L149.341 138.217ZM144.629 135.922L143.793 135.372L143.209 136.261L144.132 136.79L144.629 135.922ZM148.263 130.518C149.673 131.314 151.1 132.036 152.545 132.684L153.363 130.859C151.976 130.237 150.604 129.543 149.247 128.777L148.263 130.518ZM152.558 132.69C154.03 133.325 155.551 133.869 157.121 134.32L157.674 132.397C156.184 131.969 154.743 131.455 153.351 130.853L152.558 132.69ZM157.131 134.322C158.707 134.758 160.354 135.092 162.072 135.326L162.342 133.344C160.707 133.122 159.148 132.805 157.664 132.395L157.131 134.322ZM162.074 135.326C163.815 135.56 165.659 135.677 167.603 135.677V133.677C165.738 133.677 163.984 133.565 162.34 133.344L162.074 135.326ZM167.603 135.677C169.936 135.677 171.952 135.528 173.641 135.221L173.283 133.253C171.749 133.532 169.859 133.677 167.603 133.677V135.677ZM173.65 135.219C175.318 134.899 176.728 134.46 177.851 133.881L176.934 132.104C176.039 132.566 174.829 132.957 173.273 133.255L173.65 135.219ZM177.857 133.878C178.988 133.286 179.887 132.543 180.463 131.616L178.765 130.56C178.431 131.097 177.848 131.625 176.929 132.106L177.857 133.878ZM180.455 131.63C181.03 130.737 181.322 129.752 181.322 128.695H179.322C179.322 129.364 179.143 129.974 178.774 130.546L180.455 131.63ZM181.322 128.695C181.322 126.977 180.578 125.582 179.157 124.601L178.021 126.247C178.911 126.861 179.322 127.646 179.322 128.695H181.322ZM179.165 124.606C177.759 123.616 175.727 123.203 173.242 123.203V125.203C175.575 125.203 177.108 125.604 178.013 126.241L179.165 124.606ZM173.242 123.203C172.138 123.203 170.982 123.28 169.773 123.431L170.021 125.415C171.157 125.273 172.23 125.203 173.242 125.203V123.203ZM169.787 123.429C168.607 123.56 167.411 123.708 166.199 123.871L166.467 125.853C167.664 125.692 168.844 125.546 170.008 125.417L169.787 123.429ZM166.197 123.872C165.013 124.034 163.837 124.188 162.669 124.334L162.917 126.318C164.093 126.171 165.277 126.016 166.469 125.853L166.197 123.872ZM162.681 124.332C161.558 124.459 160.505 124.521 159.521 124.521V126.521C160.589 126.521 161.717 126.454 162.905 126.32L162.681 124.332ZM159.521 124.521C157.899 124.521 156.346 124.313 154.858 123.899L154.322 125.826C155.991 126.29 157.726 126.521 159.521 126.521V124.521ZM154.861 123.9C153.402 123.489 152.118 122.879 150.999 122.073L149.831 123.696C151.154 124.649 152.653 125.356 154.319 125.825L154.861 123.9ZM151.005 122.077C149.921 121.286 149.059 120.301 148.413 119.112L146.655 120.066C147.442 121.514 148.501 122.726 149.826 123.693L151.005 122.077ZM148.413 119.112C147.789 117.963 147.46 116.594 147.46 114.975H145.46C145.46 116.87 145.847 118.578 146.655 120.066L148.413 119.112ZM147.46 114.975C147.46 114.023 147.586 113.077 147.84 112.135L145.91 111.614C145.61 112.722 145.46 113.843 145.46 114.975H147.46ZM147.837 112.149C148.1 111.227 148.51 110.345 149.074 109.499L147.41 108.39C146.737 109.399 146.236 110.47 145.913 111.599L147.837 112.149ZM149.072 109.502C149.644 108.651 150.386 107.853 151.31 107.112L150.057 105.552C148.995 106.406 148.11 107.349 147.412 108.386L149.072 109.502ZM151.318 107.105C152.223 106.363 153.332 105.71 154.659 105.155L153.886 103.31C152.413 103.927 151.13 104.673 150.05 105.559L151.318 107.105ZM154.655 105.156C155.991 104.603 157.547 104.165 159.33 103.85L158.981 101.881C157.085 102.216 155.386 102.69 153.89 103.308L154.655 105.156ZM159.336 103.849C161.119 103.52 163.165 103.353 165.479 103.353V101.353C163.072 101.353 160.902 101.527 158.974 101.882L159.336 103.849ZM165.479 103.353C167.149 103.353 168.829 103.448 170.517 103.639L170.742 101.652C168.98 101.452 167.226 101.353 165.479 101.353V103.353ZM170.527 103.64C172.219 103.816 173.861 104.071 175.454 104.405L175.865 102.448C174.202 102.099 172.491 101.833 170.733 101.651L170.527 103.64ZM175.456 104.406C177.066 104.741 178.611 105.147 180.089 105.624L180.703 103.72C179.153 103.22 177.54 102.796 175.863 102.448L175.456 104.406ZM180.098 105.627C181.577 106.088 182.947 106.603 184.209 107.171L185.03 105.347C183.687 104.743 182.241 104.2 180.693 103.717L180.098 105.627ZM183.74 105.782L180.347 112.032L182.104 112.986L185.498 106.736L183.74 105.782ZM181.628 111.593C180.517 111.105 179.328 110.662 178.06 110.261L177.458 112.168C178.664 112.549 179.785 112.968 180.823 113.424L181.628 111.593ZM178.071 110.265C176.799 109.847 175.472 109.488 174.089 109.188L173.665 111.142C174.984 111.428 176.244 111.769 177.446 112.165L178.071 110.265ZM174.089 109.188C172.703 108.887 171.27 108.654 169.789 108.488L169.566 110.475C170.983 110.634 172.349 110.857 173.665 111.142L174.089 109.188ZM169.802 108.489C168.327 108.305 166.821 108.213 165.283 108.213V110.213C166.741 110.213 168.164 110.3 169.554 110.474L169.802 108.489ZM165.283 108.213C163.11 108.213 161.273 108.37 159.792 108.701L160.228 110.653C161.514 110.365 163.192 110.213 165.283 110.213V108.213ZM159.789 108.701C158.363 109.024 157.161 109.453 156.224 110.016L157.253 111.731C157.943 111.316 158.922 110.948 160.23 110.652L159.789 108.701ZM156.237 110.008C155.321 110.539 154.59 111.195 154.15 112.009L155.909 112.96C156.12 112.57 156.528 112.151 157.24 111.738L156.237 110.008ZM154.145 112.018C153.77 112.728 153.565 113.473 153.565 114.242H155.565C155.565 113.839 155.67 113.412 155.914 112.951L154.145 112.018ZM153.565 114.242C153.565 115.742 154.266 116.967 155.522 117.864L156.685 116.236C155.89 115.668 155.565 115.021 155.565 114.242H153.565ZM155.531 117.87C156.804 118.759 158.612 119.124 160.791 119.124V117.124C158.771 117.124 157.454 116.773 156.676 116.23L155.531 117.87ZM160.791 119.124C161.68 119.124 162.685 119.064 163.8 118.948L163.592 116.959C162.527 117.07 161.594 117.124 160.791 117.124V119.124ZM163.813 118.946C164.921 118.816 166.078 118.677 167.284 118.531L167.042 116.545C165.839 116.692 164.685 116.83 163.579 116.96L163.813 118.946ZM167.282 118.531C168.493 118.386 169.721 118.256 170.965 118.143L170.783 116.152C169.521 116.266 168.274 116.398 167.044 116.545L167.282 118.531ZM170.976 118.142C172.214 118.015 173.409 117.952 174.561 117.952V115.952C173.336 115.952 172.073 116.019 170.772 116.153L170.976 118.142ZM174.561 117.952C176.734 117.952 178.622 118.197 180.237 118.669L180.798 116.749C178.962 116.212 176.879 115.952 174.561 115.952V117.952ZM180.239 118.669C181.879 119.145 183.21 119.815 184.26 120.661L185.515 119.103C184.221 118.061 182.639 117.283 180.796 116.748L180.239 118.669ZM184.267 120.666C185.316 121.497 186.102 122.501 186.637 123.687L188.46 122.864C187.791 121.381 186.803 120.123 185.508 119.098L184.267 120.666ZM186.639 123.691C187.174 124.862 187.452 126.199 187.452 127.719H189.452C189.452 125.951 189.128 124.325 188.458 122.86L186.639 123.691ZM187.452 127.719C187.452 129.754 186.979 131.535 186.054 133.092L187.774 134.113C188.9 132.219 189.452 130.078 189.452 127.719H187.452ZM186.053 133.094C185.134 134.65 183.806 135.988 182.036 137.102L183.101 138.795C185.107 137.532 186.675 135.973 187.775 134.111L186.053 133.094ZM182.038 137.101C180.278 138.202 178.124 139.061 175.554 139.66L176.008 141.608C178.745 140.97 181.115 140.038 183.099 138.796L182.038 137.101ZM175.56 139.659C172.992 140.241 170.114 140.537 166.919 140.537V142.537C170.235 142.537 173.264 142.231 176.003 141.609L175.56 139.659ZM166.919 140.537C164.814 140.537 162.759 140.402 160.754 140.131L160.486 142.113C162.583 142.396 164.727 142.537 166.919 142.537V140.537ZM160.746 140.13C158.735 139.875 156.807 139.508 154.962 139.031L154.462 140.967C156.393 141.467 158.404 141.849 160.494 142.114L160.746 140.13ZM154.972 139.033C153.136 138.539 151.383 137.957 149.712 137.288L148.969 139.145C150.717 139.844 152.544 140.45 154.452 140.965L154.972 139.033ZM149.723 137.293C148.066 136.608 146.534 135.861 145.126 135.054L144.132 136.79C145.621 137.643 147.23 138.426 148.959 139.141L149.723 137.293ZM145.464 136.471L149.59 130.197L147.919 129.098L143.793 135.372L145.464 136.471Z" fill="black" mask="url(#path-4-outside-2_1_198)"/>
<mask id="path-6-outside-3_1_198" maskUnits="userSpaceOnUse" x="111" y="43" width="78" height="35" fill="black">
<rect fill="white" x="111" y="43" width="78" height="35"/>
<path d="M124.934 63.9531H112.91V56.1484H124.934V44.2305H133.09V56.1484H145.148V63.9531H133.09V76.5039H124.934V63.9531ZM166.84 63.9531H154.816V56.1484H166.84V44.2305H174.996V56.1484H187.055V63.9531H174.996V76.5039H166.84V63.9531Z"/>
</mask>
<path d="M124.934 63.9531H112.91V56.1484H124.934V44.2305H133.09V56.1484H145.148V63.9531H133.09V76.5039H124.934V63.9531ZM166.84 63.9531H154.816V56.1484H166.84V44.2305H174.996V56.1484H187.055V63.9531H174.996V76.5039H166.84V63.9531Z" fill="#FFFF50"/>
<path d="M124.934 63.9531H125.934V62.9531H124.934V63.9531ZM112.91 63.9531H111.91V64.9531H112.91V63.9531ZM112.91 56.1484V55.1484H111.91V56.1484H112.91ZM124.934 56.1484V57.1484H125.934V56.1484H124.934ZM124.934 44.2305V43.2305H123.934V44.2305H124.934ZM133.09 44.2305H134.09V43.2305H133.09V44.2305ZM133.09 56.1484H132.09V57.1484H133.09V56.1484ZM145.148 56.1484H146.148V55.1484H145.148V56.1484ZM145.148 63.9531V64.9531H146.148V63.9531H145.148ZM133.09 63.9531V62.9531H132.09V63.9531H133.09ZM133.09 76.5039V77.5039H134.09V76.5039H133.09ZM124.934 76.5039H123.934V77.5039H124.934V76.5039ZM124.934 62.9531H112.91V64.9531H124.934V62.9531ZM113.91 63.9531V56.1484H111.91V63.9531H113.91ZM112.91 57.1484H124.934V55.1484H112.91V57.1484ZM125.934 56.1484V44.2305H123.934V56.1484H125.934ZM124.934 45.2305H133.09V43.2305H124.934V45.2305ZM132.09 44.2305V56.1484H134.09V44.2305H132.09ZM133.09 57.1484H145.148V55.1484H133.09V57.1484ZM144.148 56.1484V63.9531H146.148V56.1484H144.148ZM145.148 62.9531H133.09V64.9531H145.148V62.9531ZM132.09 63.9531V76.5039H134.09V63.9531H132.09ZM133.09 75.5039H124.934V77.5039H133.09V75.5039ZM125.934 76.5039V63.9531H123.934V76.5039H125.934ZM166.84 63.9531H167.84V62.9531H166.84V63.9531ZM154.816 63.9531H153.816V64.9531H154.816V63.9531ZM154.816 56.1484V55.1484H153.816V56.1484H154.816ZM166.84 56.1484V57.1484H167.84V56.1484H166.84ZM166.84 44.2305V43.2305H165.84V44.2305H166.84ZM174.996 44.2305H175.996V43.2305H174.996V44.2305ZM174.996 56.1484H173.996V57.1484H174.996V56.1484ZM187.055 56.1484H188.055V55.1484H187.055V56.1484ZM187.055 63.9531V64.9531H188.055V63.9531H187.055ZM174.996 63.9531V62.9531H173.996V63.9531H174.996ZM174.996 76.5039V77.5039H175.996V76.5039H174.996ZM166.84 76.5039H165.84V77.5039H166.84V76.5039ZM166.84 62.9531H154.816V64.9531H166.84V62.9531ZM155.816 63.9531V56.1484H153.816V63.9531H155.816ZM154.816 57.1484H166.84V55.1484H154.816V57.1484ZM167.84 56.1484V44.2305H165.84V56.1484H167.84ZM166.84 45.2305H174.996V43.2305H166.84V45.2305ZM173.996 44.2305V56.1484H175.996V44.2305H173.996ZM174.996 57.1484H187.055V55.1484H174.996V57.1484ZM186.055 56.1484V63.9531H188.055V56.1484H186.055ZM187.055 62.9531H174.996V64.9531H187.055V62.9531ZM173.996 63.9531V76.5039H175.996V63.9531H173.996ZM174.996 75.5039H166.84V77.5039H174.996V75.5039ZM167.84 76.5039V63.9531H165.84V76.5039H167.84Z" fill="black" mask="url(#path-6-outside-3_1_198)"/>
<mask id="path-8-outside-4_1_198" maskUnits="userSpaceOnUse" x="65.6" y="31" width="53" height="62" fill="black">
<rect fill="white" x="65.6" y="31" width="53" height="62"/>
<path d="M116.533 40.6742C112.499 36.5898 107.373 33.7889 101.787 32.6165C96.2007 31.444 90.3978 31.9512 85.0926 34.0756C79.7875 36.1999 75.2117 39.8487 71.9286 44.5727C68.6456 49.2967 66.7986 54.8897 66.6151 60.663C66.4316 66.4363 67.9196 72.1379 70.8958 77.0659C73.872 81.9938 78.2066 85.933 83.3659 88.3983C88.5252 90.8637 94.2839 91.7476 99.933 90.9413C105.582 90.135 110.875 87.6736 115.16 83.8602L108.836 76.5749C105.954 79.1394 102.395 80.7946 98.5958 81.3369C94.7968 81.8791 90.9241 81.2847 87.4546 79.6267C83.985 77.9688 81.07 75.3198 79.0685 72.0058C77.067 68.6918 76.0664 64.8575 76.1898 60.975C76.3132 57.0925 77.5553 53.3313 79.7631 50.1544C81.9709 46.9776 85.0481 44.5238 88.6158 43.0952C92.1834 41.6666 96.0858 41.3255 99.8425 42.114C103.599 42.9024 107.046 44.786 109.759 47.5327L116.533 40.6742Z"/>
</mask>
<path d="M116.533 40.6742C112.499 36.5898 107.373 33.7889 101.787 32.6165C96.2007 31.444 90.3978 31.9512 85.0926 34.0756C79.7875 36.1999 75.2117 39.8487 71.9286 44.5727C68.6456 49.2967 66.7986 54.8897 66.6151 60.663C66.4316 66.4363 67.9196 72.1379 70.8958 77.0659C73.872 81.9938 78.2066 85.933 83.3659 88.3983C88.5252 90.8637 94.2839 91.7476 99.933 90.9413C105.582 90.135 110.875 87.6736 115.16 83.8602L108.836 76.5749C105.954 79.1394 102.395 80.7946 98.5958 81.3369C94.7968 81.8791 90.9241 81.2847 87.4546 79.6267C83.985 77.9688 81.07 75.3198 79.0685 72.0058C77.067 68.6918 76.0664 64.8575 76.1898 60.975C76.3132 57.0925 77.5553 53.3313 79.7631 50.1544C81.9709 46.9776 85.0481 44.5238 88.6158 43.0952C92.1834 41.6666 96.0858 41.3255 99.8425 42.114C103.599 42.9024 107.046 44.786 109.759 47.5327L116.533 40.6742Z" fill="#FFFF50"/>
<path d="M116.533 40.6742C112.499 36.5898 107.373 33.7889 101.787 32.6165C96.2007 31.444 90.3978 31.9512 85.0926 34.0756C79.7875 36.1999 75.2117 39.8487 71.9286 44.5727C68.6456 49.2967 66.7986 54.8897 66.6151 60.663C66.4316 66.4363 67.9196 72.1379 70.8958 77.0659C73.872 81.9938 78.2066 85.933 83.3659 88.3983C88.5252 90.8637 94.2839 91.7476 99.933 90.9413C105.582 90.135 110.875 87.6736 115.16 83.8602L108.836 76.5749C105.954 79.1394 102.395 80.7946 98.5958 81.3369C94.7968 81.8791 90.9241 81.2847 87.4546 79.6267C83.985 77.9688 81.07 75.3198 79.0685 72.0058C77.067 68.6918 76.0664 64.8575 76.1898 60.975C76.3132 57.0925 77.5553 53.3313 79.7631 50.1544C81.9709 46.9776 85.0481 44.5238 88.6158 43.0952C92.1834 41.6666 96.0858 41.3255 99.8425 42.114C103.599 42.9024 107.046 44.786 109.759 47.5327L116.533 40.6742Z" stroke="black" stroke-width="2" mask="url(#path-8-outside-4_1_198)"/>
<path d="M36 174.5L51 163L59.5 174.5L74 163L83 174.5L94.5 163L104 174.5L116.5 163L124.5 174.5L150.5 150" stroke="black" stroke-width="3" stroke-linecap="round"/>
</svg>
