<svg data-name="Layer 1" xmlns="http://www.w3.org/2000/svg" width="783.57397" height="464.7259" viewBox="0 0 783.57397 464.7259" xmlns:xlink="http://www.w3.org/1999/xlink"><path d="M776.52937,441.05648a9.377,9.377,0,0,1,13.82847,3.93874l21.42052-.56563L815.297,457.363l-30.26115.37391a9.42779,9.42779,0,0,1-8.50644-16.68038Z" transform="translate(-208.21302 -217.63705)" fill="#ffb8b8"/><path d="M800.55445,461.72992a7.17647,7.17647,0,0,1-2.26921-4.77083l-.8565-12.85657a7.15261,7.15261,0,0,1,2.78447-6.15967l34.5346-26.53274,20.0748-24.36786a12.56854,12.56854,0,0,1,17.05956-2.17568l.00018.00017a12.55,12.55,0,0,1,2.67081,17.67892l-23.38322,31.21721-16.647,17.62963a36.20669,36.20669,0,0,1-19.78767,10.702l-8.03177,1.44237a7.17249,7.17249,0,0,1-5.67972-1.40674Q800.77935,461.93962,800.55445,461.72992Z" transform="translate(-208.21302 -217.63705)" fill="#00bfa6"/><polygon points="750.584 445.362 739.493 448.132 723.53 406.669 739.9 402.581 750.584 445.362" fill="#ffb8b8"/><path d="M940.55163,663.38277h22.04781a0,0,0,0,1,0,0v13.88195a0,0,0,0,1,0,0H926.6697a0,0,0,0,1,0,0v0A13.88193,13.88193,0,0,1,940.55163,663.38277Z" transform="translate(-342.47837 31.20912) rotate(-14.02161)" fill="#2f2e41"/><polygon points="650.479 453.158 639.047 453.157 633.611 409.061 650.483 409.062 650.479 453.158" fill="#ffb8b8"/><path d="M630.88109,449.89h22.04781a0,0,0,0,1,0,0v13.88195a0,0,0,0,1,0,0H616.99916a0,0,0,0,1,0,0v0A13.88193,13.88193,0,0,1,630.88109,449.89Z" fill="#2f2e41"/><circle cx="645.52261" cy="110.3176" r="24.56103" fill="#ffb8b8"/><path d="M853.68879,328.8254c.04537-3.28514,5.69924-3.69675,7.46024-.89681s.63115,6.45287-.92051,9.3684c-1.6153,3.03513-3.71041,6.10034-3.38735,9.54749a5.19842,5.19842,0,0,0,7.96281,3.71844c8.02264-4.93975,14.79519-12.13006,17.79163-20.89308,3.1515-9.21648,1.57686-20.20324-5.23941-27.28431s-19.03582-9.084-27.12636-3.42318l-13.80924-9.40549a1.92681,1.92681,0,0,0-2.96472,2.09508l2.01921,6.56265-6.97467-1.75472a1.53311,1.53311,0,0,0-1.71187,2.28668l2.39475,3.72023c-3.19342-2.62728-8.71022.36687-9.1679,4.41887s2.83554,7.78722,6.70819,9.31366,8.19767,1.35268,12.36926,1.15517a9.82277,9.82277,0,0,0,4.55755,10.575C847.25825,330.02033,852.2397,329.52747,853.68879,328.8254Z" transform="translate(-208.21302 -217.63705)" fill="#2f2e41"/><path d="M859.00957,652.1735c-.04736,0-.09472-.00049-.14258-.00244l-17.6582-.5503a4.50064,4.50064,0,0,1-4.3529-4.74316l8.8319-162.1665,67.85962,19.24414L958.04619,642.738a4.50037,4.50037,0,0,1-4.16552,5.87305l-20.33838.54a4.542,4.542,0,0,1-4.2981-2.82813L883.47344,531.82926a1.5,1.5,0,0,0-2.87671.3374L863.45928,648.33024A4.49983,4.49983,0,0,1,859.00957,652.1735Z" transform="translate(-208.21302 -217.63705)" fill="#2f2e41"/><path d="M910.2542,525.39615a22.88013,22.88013,0,0,1-13.41846-4.36035l-21.83569-15.7622a36.85239,36.85239,0,0,0-16.18384-6.5586l-10.50659-1.53222a6.56544,6.56544,0,0,1-5.62671-6.78809l4.18726-100.249-2.4856-14.291a6.18109,6.18109,0,0,1,2.59326-6.14551l19.46143-13.31543a8.14152,8.14152,0,0,1,5.22974-1.395l.71118.05616a9.52914,9.52914,0,0,1,8.50268,7.19531l.7461,2.98486,12.94775,23.01807a85.42321,85.42321,0,0,1,8.54785,21.68115l12.27417,50.43945a90.97873,90.97873,0,0,1,2.20947,13.34766l4.06519,45.35889a4.54931,4.54931,0,0,1-2.85913,4.65869A23.028,23.028,0,0,1,910.2542,525.39615Z" transform="translate(-208.21302 -217.63705)" fill="#00bfa6"/><path d="M869.52181,489.06861a9.37694,9.37694,0,0,1,9.01224-11.20355l7.81946-19.95031,13.28272,1.7949-11.43829,28.01861a9.42779,9.42779,0,0,1-18.67613,1.34035Z" transform="translate(-208.21302 -217.63705)" fill="#ffb8b8"/><path d="M897.91833,474.98907a7.17644,7.17644,0,0,1-5.27789.23253l-12.17546-4.217a7.15262,7.15262,0,0,1-4.58938-4.9631L864.88337,423.9013,850.255,395.92272a12.56855,12.56855,0,0,1,4.63844-16.56041l.00022-.0001a12.55,12.55,0,0,1,17.32368,4.42354l19.649,33.69282,9.75656,22.19766a36.20667,36.20667,0,0,1,2.15277,22.39309l-1.79876,7.95953a7.17251,7.17251,0,0,1-3.50721,4.68376Q898.199,474.86357,897.91833,474.98907Z" transform="translate(-208.21302 -217.63705)" fill="#00bfa6"/><path d="M768.20764,558.53842H225.86743a16.51868,16.51868,0,0,1-16.5-16.5V236.23861H784.70764V542.03842A16.51867,16.51867,0,0,1,768.20764,558.53842Z" transform="translate(-208.21302 -217.63705)" fill="#e6e6e6"/><path d="M746.62464,526.95492H247.45008a8.50958,8.50958,0,0,1-8.5-8.5V276.32113a8.50958,8.50958,0,0,1,8.5-8.5H746.62464a8.50951,8.50951,0,0,1,8.5,8.5V518.45492A8.50951,8.50951,0,0,1,746.62464,526.95492Z" transform="translate(-208.21302 -217.63705)" fill="#fff"/><path d="M785.86219,247.38461H208.213V234.13705a16.51866,16.51866,0,0,1,16.5-16.5H769.36219a16.51867,16.51867,0,0,1,16.5,16.5Z" transform="translate(-208.21302 -217.63705)" fill="#00bfa6"/><path d="M374.46319,315.34293h-88.8501a8.5057,8.5057,0,0,0-8.5,8.5v58.4a8.5057,8.5057,0,0,0,8.5,8.5h88.8501a8.512,8.512,0,0,0,8.5-8.5v-58.4A8.512,8.512,0,0,0,374.46319,315.34293Z" transform="translate(-208.21302 -217.63705)" fill="#e6e6e6"/><path d="M541.46319,315.34293h-88.8501a8.5057,8.5057,0,0,0-8.5,8.5v58.4a8.5057,8.5057,0,0,0,8.5,8.5h88.8501a8.512,8.512,0,0,0,8.5-8.5v-58.4A8.512,8.512,0,0,0,541.46319,315.34293Z" transform="translate(-208.21302 -217.63705)" fill="#e6e6e6"/><path d="M708.46319,315.34293h-88.8501a8.5057,8.5057,0,0,0-8.5,8.5v58.4a8.5057,8.5057,0,0,0,8.5,8.5h88.8501a8.512,8.512,0,0,0,8.5-8.5v-58.4A8.512,8.512,0,0,0,708.46319,315.34293Z" transform="translate(-208.21302 -217.63705)" fill="#e6e6e6"/><path d="M361.89336,418.34293h-63.71a4.725,4.725,0,1,0,0,9.45h63.71a4.725,4.725,0,1,0,0-9.45Z" transform="translate(-208.21302 -217.63705)" fill="#e6e6e6"/><path d="M361.89336,444.16294h-63.71a4.7216,4.7216,0,0,0-1.94043,9.03,4.66208,4.66208,0,0,0,1.94043.42h63.71a4.725,4.725,0,1,0,0-9.45Z" transform="translate(-208.21302 -217.63705)" fill="#e6e6e6"/><path d="M361.89336,469.983h-63.71a4.725,4.725,0,1,0,0,9.45h63.71a4.725,4.725,0,1,0,0-9.45Z" transform="translate(-208.21302 -217.63705)" fill="#e6e6e6"/><path d="M528.89336,418.34293h-63.71a4.725,4.725,0,1,0,0,9.45h63.71a4.725,4.725,0,1,0,0-9.45Z" transform="translate(-208.21302 -217.63705)" fill="#e6e6e6"/><path d="M528.89336,444.16294h-63.71a4.725,4.725,0,1,0,0,9.45h63.71a4.725,4.725,0,1,0,0-9.45Z" transform="translate(-208.21302 -217.63705)" fill="#e6e6e6"/><path d="M528.89336,469.983h-63.71a4.72463,4.72463,0,0,0-1.49023,9.21,4.60522,4.60522,0,0,0,1.49023.24h63.71a4.725,4.725,0,1,0,0-9.45Z" transform="translate(-208.21302 -217.63705)" fill="#e6e6e6"/><path d="M695.89336,418.34293h-63.71a4.725,4.725,0,1,0,0,9.45h63.71a4.725,4.725,0,1,0,0-9.45Z" transform="translate(-208.21302 -217.63705)" fill="#e6e6e6"/><path d="M695.89336,444.16294h-63.71a4.7216,4.7216,0,0,0-1.94043,9.03,4.66208,4.66208,0,0,0,1.94043.42h63.71a4.725,4.725,0,1,0,0-9.45Z" transform="translate(-208.21302 -217.63705)" fill="#e6e6e6"/><path d="M695.89336,469.983h-63.71a4.725,4.725,0,1,0,0,9.45h63.71a4.725,4.725,0,1,0,0-9.45Z" transform="translate(-208.21302 -217.63705)" fill="#e6e6e6"/><circle cx="18.9254" cy="15.04874" r="4.28342" fill="#fff"/><circle cx="35.18421" cy="15.04874" r="4.28342" fill="#fff"/><circle cx="51.44301" cy="15.04874" r="4.28342" fill="#fff"/><path d="M343.763,418.34293H298.1834a4.725,4.725,0,1,0,0,9.45h44.62988a5.37928,5.37928,0,0,0,.94971-9.45Z" transform="translate(-208.21302 -217.63705)" fill="#00bfa6"/><path d="M322.71319,444.16294H298.1834a4.7216,4.7216,0,0,0-1.94043,9.03h22.53027a5.38176,5.38176,0,0,0,5.37989-5.38A5.27064,5.27064,0,0,0,322.71319,444.16294Z" transform="translate(-208.21302 -217.63705)" fill="#00bfa6"/><path d="M357.13311,469.983H298.1834a4.725,4.725,0,1,0,0,9.45H357.513a5.36761,5.36761,0,0,0-.37988-9.45Z" transform="translate(-208.21302 -217.63705)" fill="#00bfa6"/><path d="M647.87334,418.34293H632.1834a4.72511,4.72511,0,0,0-2.31006,8.85h13.8999a5.38176,5.38176,0,0,0,5.37989-5.38A5.29475,5.29475,0,0,0,647.87334,418.34293Z" transform="translate(-208.21302 -217.63705)" fill="#00bfa6"/><path d="M659.71319,444.16294H632.1834a4.7216,4.7216,0,0,0-1.94043,9.03h25.53027a5.38176,5.38176,0,0,0,5.37989-5.38A5.27064,5.27064,0,0,0,659.71319,444.16294Z" transform="translate(-208.21302 -217.63705)" fill="#00bfa6"/><path d="M679.13311,469.983H632.1834a4.725,4.725,0,1,0,0,9.45H679.513a5.36761,5.36761,0,0,0-.37988-9.45Z" transform="translate(-208.21302 -217.63705)" fill="#00bfa6"/><path d="M524.46319,444.16294H465.1834a4.725,4.725,0,1,0,0,9.45h59.00977a5.36815,5.36815,0,0,0,.27-9.45Z" transform="translate(-208.21302 -217.63705)" fill="#00bfa6"/><path d="M471.54326,469.983H465.1834a4.72463,4.72463,0,0,0-1.49023,9.21h4.08007a5.38176,5.38176,0,0,0,5.37989-5.38A5.31393,5.31393,0,0,0,471.54326,469.983Z" transform="translate(-208.21302 -217.63705)" fill="#00bfa6"/><path d="M499.763,418.34293H465.1834a4.725,4.725,0,1,0,0,9.45h33.62988a5.37928,5.37928,0,0,0,.94971-9.45Z" transform="translate(-208.21302 -217.63705)" fill="#00bfa6"/><path d="M990.787,682.363h-217a1,1,0,0,1,0-2h217a1,1,0,1,1,0,2Z" transform="translate(-208.21302 -217.63705)" fill="#ccc"/></svg>